<svg width="20" height="20" viewBox="0 0 20 20" fill="none" xmlns="http://www.w3.org/2000/svg">
<path d="M5.87634 3C4.84142 3 4 3.84082 4 4.875V16.125C4 17.1592 4.84142 18 5.87634 18H13.3817C14.4166 18 15.2581 17.1592 15.2581 16.125V7.6875H11.5054C10.9864 7.6875 10.5672 7.26855 10.5672 6.75V3H5.87634ZM11.5054 3V6.75H15.2581L11.5054 3ZM6.34543 4.875H8.22177C8.47977 4.875 8.69086 5.08594 8.69086 5.34375C8.69086 5.60156 8.47977 5.8125 8.22177 5.8125H6.34543C6.08743 5.8125 5.87634 5.60156 5.87634 5.34375C5.87634 5.08594 6.08743 4.875 6.34543 4.875ZM6.34543 6.75H8.22177C8.47977 6.75 8.69086 6.96094 8.69086 7.21875C8.69086 7.47656 8.47977 7.6875 8.22177 7.6875H6.34543C6.08743 7.6875 5.87634 7.47656 5.87634 7.21875C5.87634 6.96094 6.08743 6.75 6.34543 6.75ZM6.81452 9.5625H12.4435C12.9625 9.5625 13.3817 9.98145 13.3817 10.5V12.375C13.3817 12.8936 12.9625 13.3125 12.4435 13.3125H6.81452C6.29559 13.3125 5.87634 12.8936 5.87634 12.375V10.5C5.87634 9.98145 6.29559 9.5625 6.81452 9.5625ZM6.81452 10.5V12.375H12.4435V10.5H6.81452ZM11.0363 15.1875H12.9126C13.1706 15.1875 13.3817 15.3984 13.3817 15.6562C13.3817 15.9141 13.1706 16.125 12.9126 16.125H11.0363C10.7783 16.125 10.5672 15.9141 10.5672 15.6562C10.5672 15.3984 10.7783 15.1875 11.0363 15.1875Z" fill="#125099"/>
</svg>
