<svg width="20" height="20" viewBox="0 0 20 20" fill="none" xmlns="http://www.w3.org/2000/svg">
<path d="M18.7499 3.74995C18.748 3.10167 18.4938 2.47959 18.0411 2.01547C17.5885 1.55135 16.973 1.28163 16.325 1.26344C15.6769 1.24524 15.0473 1.47999 14.5693 1.91798C14.0913 2.35597 13.8026 2.9628 13.7643 3.60995L5.99118 5.16433C5.80943 4.78659 5.53541 4.46076 5.19442 4.21695C4.85343 3.97315 4.45648 3.81923 4.04027 3.76943C3.62405 3.71963 3.202 3.77555 2.81312 3.93202C2.42423 4.0885 2.08107 4.34048 1.81534 4.66467C1.54961 4.98887 1.36989 5.37482 1.29279 5.78685C1.21569 6.19888 1.2437 6.6237 1.37423 7.02205C1.50476 7.42039 1.73359 7.7794 2.03959 8.0659C2.34558 8.3524 2.71886 8.55714 3.12492 8.6612V13.8387C2.69867 13.9481 2.30895 14.1684 1.99532 14.4771C1.68169 14.7858 1.45532 15.172 1.33918 15.5965C1.22305 16.021 1.22128 16.4686 1.33407 16.894C1.44685 17.3194 1.67016 17.7073 1.98135 18.0185C2.29253 18.3297 2.6805 18.553 3.10588 18.6658C3.53126 18.7786 3.97891 18.7768 4.40339 18.6607C4.82787 18.5446 5.21407 18.3182 5.52279 18.0046C5.8315 17.6909 6.05175 17.3012 6.16117 16.875H11.3387C11.4426 17.2813 11.6472 17.6549 11.9338 17.9611C12.2203 18.2674 12.5794 18.4965 12.9779 18.6272C13.3765 18.7579 13.8015 18.786 14.2137 18.7089C14.626 18.6318 15.0122 18.452 15.3365 18.1862C15.6609 17.9203 15.913 17.5769 16.0695 17.1878C16.226 16.7987 16.2819 16.3764 16.2319 15.96C16.182 15.5436 16.0279 15.1465 15.7838 14.8054C15.5397 14.4644 15.2136 14.1903 14.8355 14.0087L16.3899 6.23558C17.0262 6.2008 17.6252 5.92397 18.064 5.46183C18.5027 4.99968 18.7482 4.38722 18.7499 3.74995ZM16.2499 2.49995C16.4971 2.49995 16.7388 2.57326 16.9444 2.71062C17.1499 2.84797 17.3102 3.04319 17.4048 3.2716C17.4994 3.50001 17.5241 3.75134 17.4759 3.99382C17.4277 4.23629 17.3086 4.45902 17.1338 4.63384C16.959 4.80865 16.7363 4.9277 16.4938 4.97594C16.2513 5.02417 16 4.99941 15.7716 4.9048C15.5432 4.81019 15.3479 4.64998 15.2106 4.44442C15.0732 4.23885 14.9999 3.99718 14.9999 3.74995C15.0003 3.41853 15.1321 3.10078 15.3664 2.86644C15.6008 2.63209 15.9185 2.50028 16.2499 2.49995ZM2.49993 6.24995C2.49993 6.00273 2.57324 5.76105 2.71059 5.55549C2.84794 5.34993 3.04316 5.18971 3.27157 5.0951C3.49998 5.00049 3.75131 4.97574 3.99379 5.02397C4.23626 5.0722 4.45899 5.19125 4.63381 5.36607C4.80862 5.54089 4.92768 5.76361 4.97591 6.00609C5.02414 6.24857 4.99938 6.4999 4.90477 6.72831C4.81016 6.95672 4.64995 7.15194 4.44439 7.28929C4.23883 7.42664 3.99715 7.49995 3.74992 7.49995C3.41851 7.49962 3.10076 7.36782 2.86641 7.13347C2.63206 6.89912 2.50026 6.58137 2.49993 6.24995ZM3.74992 17.5C3.5027 17.5 3.26102 17.4266 3.05546 17.2893C2.8499 17.1519 2.68968 16.9567 2.59508 16.7283C2.50047 16.4999 2.47571 16.2486 2.52394 16.0061C2.57217 15.7636 2.69123 15.5409 2.86604 15.3661C3.04086 15.1913 3.26359 15.0722 3.50606 15.024C3.74854 14.9757 3.99987 15.0005 4.22828 15.0951C4.45669 15.1897 4.65191 15.3499 4.78926 15.5555C4.92661 15.7611 4.99992 16.0027 4.99992 16.25C4.99959 16.5814 4.86779 16.8991 4.63344 17.1335C4.39909 17.3678 4.08134 17.4996 3.74992 17.5ZM11.3387 15.625H6.16117C6.04922 15.1953 5.82467 14.8032 5.51068 14.4892C5.19669 14.1752 4.80463 13.9507 4.37492 13.8387V8.6612C4.88558 8.52838 5.34089 8.23688 5.67527 7.82871C6.00964 7.42054 6.20583 6.91676 6.23555 6.38995L14.0087 4.83558C14.2536 5.33946 14.6605 5.7466 15.1643 5.99183L13.6099 13.7643C13.0831 13.7941 12.5793 13.9902 12.1712 14.3246C11.763 14.659 11.4715 15.1143 11.3387 15.625ZM13.7499 17.5C13.5027 17.5 13.261 17.4266 13.0555 17.2893C12.8499 17.1519 12.6897 16.9567 12.5951 16.7283C12.5005 16.4999 12.4757 16.2486 12.5239 16.0061C12.5722 15.7636 12.6912 15.5409 12.866 15.3661C13.0409 15.1913 13.2636 15.0722 13.5061 15.024C13.7485 14.9757 13.9999 15.0005 14.2283 15.0951C14.4567 15.1897 14.6519 15.3499 14.7893 15.5555C14.9266 15.7611 14.9999 16.0027 14.9999 16.25C14.9996 16.5814 14.8678 16.8991 14.6334 17.1335C14.3991 17.3678 14.0813 17.4996 13.7499 17.5Z" fill="#00BC62"/>
</svg>
