<svg width="20" height="20" viewBox="0 0 20 20" fill="none" xmlns="http://www.w3.org/2000/svg">
<mask id="mask0_689_1123" style="mask-type:luminance" maskUnits="userSpaceOnUse" x="0" y="0" width="16" height="20">
<path d="M13.8333 1.6665H2.16659C1.94557 1.6665 1.73361 1.7543 1.57733 1.91058C1.42105 2.06686 1.33325 2.27882 1.33325 2.49984V17.4998C1.33325 17.7209 1.42105 17.9328 1.57733 18.0891C1.73361 18.2454 1.94557 18.3332 2.16659 18.3332H13.8333C14.0543 18.3332 14.2662 18.2454 14.4225 18.0891C14.5788 17.9328 14.6666 17.7209 14.6666 17.4998V2.49984C14.6666 2.27882 14.5788 2.06686 14.4225 1.91058C14.2662 1.7543 14.0543 1.6665 13.8333 1.6665Z" fill="white"/>
<path fill-rule="evenodd" clip-rule="evenodd" d="M0.988156 1.32141C1.30072 1.00885 1.72464 0.833252 2.16667 0.833252H13.8333C14.2754 0.833252 14.6993 1.00885 15.0118 1.32141C15.3244 1.63397 15.5 2.05789 15.5 2.49992V17.4999C15.5 17.9419 15.3244 18.3659 15.0118 18.6784C14.6993 18.991 14.2754 19.1666 13.8333 19.1666H2.16667C1.72464 19.1666 1.30072 18.991 0.988156 18.6784C0.675595 18.3659 0.5 17.9419 0.5 17.4999V2.49992C0.5 2.05789 0.675595 1.63397 0.988156 1.32141ZM13.8333 2.49992H2.16667L2.16667 17.4999H13.8333V2.49992Z" fill="white"/>
<path fill-rule="evenodd" clip-rule="evenodd" d="M11.0893 4.82733C11.4147 5.15277 11.4147 5.6804 11.0893 6.00584L7.75592 9.33917C7.43049 9.66461 6.90285 9.66461 6.57741 9.33917L4.91074 7.67251C4.58531 7.34707 4.58531 6.81943 4.91074 6.494C5.23618 6.16856 5.76382 6.16856 6.08926 6.494L7.16667 7.57141L9.91074 4.82733C10.2362 4.50189 10.7638 4.50189 11.0893 4.82733ZM4.25 12.4999C4.25 12.0397 4.6231 11.6666 5.08333 11.6666H10.9167C11.3769 11.6666 11.75 12.0397 11.75 12.4999C11.75 12.9602 11.3769 13.3333 10.9167 13.3333H5.08333C4.6231 13.3333 4.25 12.9602 4.25 12.4999ZM4.25 14.9999C4.25 14.5397 4.6231 14.1666 5.08333 14.1666H8C8.46024 14.1666 8.83333 14.5397 8.83333 14.9999C8.83333 15.4602 8.46024 15.8333 8 15.8333H5.08333C4.6231 15.8333 4.25 15.4602 4.25 14.9999Z" fill="black"/>
</mask>
<g mask="url(#mask0_689_1123)">
<path d="M-2 0H18V20H-2V0Z" fill="#125099"/>
</g>
</svg>
