<svg width="20" height="20" viewBox="0 0 20 20" fill="none" xmlns="http://www.w3.org/2000/svg">
<path d="M3.34036 1.44531C2.89631 1.44531 2.53906 1.80287 2.53906 2.24731C2.53906 2.69176 2.89631 3.04932 3.34036 3.04932H3.60746V8.02507C3.54403 8.07185 3.48059 8.12198 3.42049 8.1721C2.90299 8.6132 2.53906 9.22807 2.53906 10C2.53906 11.5672 3.0165 12.8103 3.7744 13.7594C4.2485 14.3509 4.81275 14.8053 5.39369 15.1562L4.72928 17.1478C4.6191 17.4753 4.67586 17.8329 4.87619 18.1102C5.07651 18.3876 5.40037 18.5547 5.74426 18.5547H14.2915C14.6354 18.5547 14.9559 18.3909 15.1595 18.1102C15.3632 17.8295 15.4166 17.472 15.3064 17.1478L14.6454 15.1595C15.2263 14.8087 15.7906 14.3542 16.2647 13.7627C17.0226 12.8137 17.5 11.5739 17.5 10.0033C17.5 9.23141 17.1361 8.61655 16.6186 8.17879C16.5585 8.12866 16.495 8.07854 16.4316 8.03175V3.04932H16.6987C17.1428 3.04932 17.5 2.69176 17.5 2.24731C17.5 1.80287 17.1428 1.44531 16.6987 1.44531H3.34036ZM15.3599 10.01C15.3599 10.0434 15.3498 10.0969 15.233 10.1972C15.0727 10.3342 14.7656 10.4979 14.2547 10.6449C13.2398 10.9357 11.7573 11.0693 10.0179 11.0693C8.27837 11.0693 6.79597 10.9357 5.78099 10.6416C5.27016 10.4946 4.96299 10.3308 4.80273 10.1938C4.68588 10.0936 4.67586 10.0401 4.67586 10.0067V9.99332C4.67586 9.9599 4.67586 9.90977 4.80273 9.7995C4.96299 9.66249 5.27016 9.49875 5.78099 9.35172C6.79597 9.06433 8.27837 8.93066 10.0179 8.93066C11.7573 8.93066 13.2398 9.06433 14.2547 9.3584C14.7656 9.50543 15.0727 9.66917 15.233 9.80618C15.3599 9.91312 15.3599 9.96658 15.3599 10V10.0134V10.01ZM13.4968 14.2773L13.4902 14.2941V14.2773H13.4968ZM6.27846 3.58398H7.34686C7.64067 3.58398 7.88106 3.82458 7.88106 4.11865C7.88106 4.41272 7.64067 4.65332 7.34686 4.65332H6.27846C5.98465 4.65332 5.74426 4.41272 5.74426 4.11865C5.74426 3.82458 5.98465 3.58398 6.27846 3.58398Z" fill="#00BC62"/>
</svg>
