<svg width="20" height="20" viewBox="0 0 20 20" fill="none" xmlns="http://www.w3.org/2000/svg">
<g clip-path="url(#clip0_558_416)">
<path d="M12.2308 -5.79199e-05C12.0929 0.0147612 11.9641 0.0756935 11.8652 0.172865L8 4.03871L5.98092 2.0184C5.92274 1.96026 5.85367 1.91414 5.77766 1.88269C5.70165 1.85124 5.62019 1.83506 5.53794 1.83509C5.45568 1.83512 5.37423 1.85135 5.29824 1.88286C5.22226 1.91436 5.15322 1.96053 5.09508 2.01871C4.97765 2.13622 4.91171 2.29557 4.91177 2.4617C4.91179 2.54396 4.92803 2.6254 4.95953 2.70139C4.99104 2.77738 5.0372 2.84641 5.09538 2.90456L7.11508 4.92302H1.84615C1.35652 4.92302 0.886947 5.11752 0.540726 5.46374C0.194505 5.80997 0 6.27954 0 6.76917L0 14.1538C0 14.6434 0.194505 15.113 0.540726 15.4592C0.886947 15.8054 1.35652 15.9999 1.84615 15.9999H14.1538C14.6435 15.9999 15.1131 15.8054 15.4593 15.4592C15.8055 15.113 16 14.6434 16 14.1538V6.76917C16 6.27954 15.8055 5.80997 15.4593 5.46374C15.1131 5.11752 14.6435 4.92302 14.1538 4.92302H8.88431L12.7502 1.05779C12.847 0.967756 12.9123 0.848925 12.9363 0.718898C12.9603 0.58887 12.9418 0.454562 12.8835 0.335868C12.8253 0.217174 12.7303 0.120408 12.6127 0.0599032C12.4952 -0.000601663 12.3612 -0.0216268 12.2308 -5.79199e-05ZM6.46154 6.15379C11.0431 6.15379 11.6923 6.16671 11.6923 10.4615C11.6923 14.7569 10.9982 14.7692 6.46154 14.7692C1.904 14.7692 1.23077 14.7236 1.23077 10.4615C1.23077 6.20056 1.904 6.15379 6.46154 6.15379ZM13.8462 7.96179C14.3791 7.96179 14.808 8.3901 14.808 8.92302C14.8082 9.0494 14.7835 9.17458 14.7353 9.29139C14.687 9.4082 14.6162 9.51433 14.5268 9.60369C14.4375 9.69305 14.3313 9.76389 14.2145 9.81214C14.0977 9.8604 13.9725 9.88511 13.8462 9.88487C13.7198 9.88519 13.5945 9.86053 13.4777 9.81231C13.3608 9.76409 13.2547 9.69325 13.1653 9.60387C13.0759 9.51449 13.0051 9.40833 12.9569 9.29149C12.9086 9.17464 12.884 9.04942 12.8843 8.92302C12.8841 8.79664 12.9088 8.67146 12.957 8.55465C13.0053 8.43784 13.0761 8.33171 13.1655 8.24235C13.2548 8.15298 13.361 8.08214 13.4778 8.03389C13.5946 7.98564 13.7198 7.96154 13.8462 7.96179ZM13.8462 10.4233C14.3791 10.4233 14.808 10.8516 14.808 11.3846C14.8082 11.5109 14.7835 11.6361 14.7353 11.7529C14.687 11.8697 14.6162 11.9759 14.5268 12.0652C14.4375 12.1546 14.3313 12.2254 14.2145 12.2737C14.0977 12.3219 13.9725 12.3466 13.8462 12.3464C13.7198 12.3467 13.5945 12.3221 13.4777 12.2738C13.3608 12.2256 13.2547 12.1548 13.1653 12.0654C13.0759 11.976 13.0051 11.8699 12.9569 11.753C12.9086 11.6362 12.884 11.511 12.8843 11.3846C12.8841 11.2582 12.9088 11.133 12.957 11.0162C13.0053 10.8994 13.0761 10.7933 13.1655 10.7039C13.2548 10.6145 13.361 10.5437 13.4778 10.4954C13.5946 10.4472 13.7198 10.4231 13.8462 10.4233Z" fill="#FF7A00"/>
</g>
<defs>
<clipPath id="clip0_558_416">
<rect width="16" height="16" fill="white"/>
</clipPath>
</defs>
</svg>
