<svg width="20" height="20" viewBox="0 0 20 20" fill="none" xmlns="http://www.w3.org/2000/svg">
<path d="M4.00002 1.3335C3.6464 1.3335 3.30726 1.47397 3.05721 1.72402C2.80716 1.97407 2.66669 2.31321 2.66669 2.66683V12.6668C2.66669 13.4068 3.26002 14.0002 4.00002 14.0002V14.6668H5.33335V14.0002H10.6667V14.6668H12V14.0002C12.74 14.0002 13.3334 13.4068 13.3334 12.6668V2.66683C13.3334 2.31321 13.1929 1.97407 12.9428 1.72402C12.6928 1.47397 12.3536 1.3335 12 1.3335H4.00002ZM4.00002 2.66683H7.33335V12.6668H4.00002V2.66683ZM8.66669 2.66683H12V12.6668H8.66669V2.66683ZM5.33335 6.66683V8.66683H6.66669V6.66683H5.33335ZM9.33335 6.66683V8.66683H10.6667V6.66683H9.33335Z" fill="#4372FF"/>
</svg>
