<svg width="20" height="20" viewBox="0 0 20 20" fill="none" xmlns="http://www.w3.org/2000/svg">
<path d="M12.6667 8.66683V2.66683C12.6667 1.9315 12.0687 1.3335 11.3334 1.3335H4.66669C3.93135 1.3335 3.33335 1.9315 3.33335 2.66683V8.66683C3.15654 8.66683 2.98697 8.73707 2.86195 8.86209C2.73693 8.98712 2.66669 9.15668 2.66669 9.3335V14.6668H4.00002V11.3335H12V14.6668H13.3334V9.3335C13.3334 9.15668 13.2631 8.98712 13.1381 8.86209C13.0131 8.73707 12.8435 8.66683 12.6667 8.66683ZM11.3334 2.66683V8.66683H10V2.66683H11.3334ZM8.66669 2.66683V8.66683H7.33335V2.66683H8.66669ZM4.66669 2.66683H6.00002V8.66683H4.66669V2.66683Z" fill="#4372FF"/>
</svg>
