<svg width="20" height="20" viewBox="0 0 20 20" fill="none" xmlns="http://www.w3.org/2000/svg">
<path d="M6.9043 1.71875C6.32993 1.71875 5.86589 2.18243 5.86589 2.75635V5.86914H7.94271V2.75635C7.94271 2.18243 7.47867 1.71875 6.9043 1.71875ZM13.1348 1.71875C12.5604 1.71875 12.0964 2.18243 12.0964 2.75635V5.86914H14.1732V2.75635C14.1732 2.18243 13.7091 1.71875 13.1348 1.71875ZM4.82747 6.90674C4.2531 6.90674 3.78906 7.37041 3.78906 7.94434C3.78906 8.51826 4.2531 8.98193 4.82747 8.98193V10.0195C4.82747 12.5292 6.61224 14.6239 8.98112 15.1038V17.2827C8.98112 17.8566 9.44516 18.3203 10.0195 18.3203C10.5939 18.3203 11.0579 17.8566 11.0579 17.2827V15.1038C13.4268 14.6239 15.2116 12.5292 15.2116 10.0195V8.98193C15.786 8.98193 16.25 8.51826 16.25 7.94434C16.25 7.37041 15.786 6.90674 15.2116 6.90674H4.82747Z" fill="#125099"/>
</svg>
