<svg width="20" height="20" viewBox="0 0 20 20" fill="none" xmlns="http://www.w3.org/2000/svg">
<path d="M5.83333 15H8.6875V12.2292H10.8333V9.45833H12.9792V6.66667H14.1667C14.4028 6.66667 14.6006 6.58694 14.76 6.4275C14.92 6.2675 15 6.06944 15 5.83333C15 5.59722 14.92 5.39917 14.76 5.23917C14.6006 5.07972 14.4028 5 14.1667 5H11.3125V7.77083H9.16667V10.5417H7.02083V13.3333H5.83333C5.59722 13.3333 5.39917 13.4133 5.23917 13.5733C5.07972 13.7328 5 13.9306 5 14.1667C5 14.4028 5.07972 14.6006 5.23917 14.76C5.39917 14.92 5.59722 15 5.83333 15ZM4.16667 17.5C3.70833 17.5 3.31583 17.3369 2.98917 17.0108C2.66306 16.6842 2.5 16.2917 2.5 15.8333V4.16667C2.5 3.70833 2.66306 3.31583 2.98917 2.98917C3.31583 2.66306 3.70833 2.5 4.16667 2.5H15.8333C16.2917 2.5 16.6842 2.66306 17.0108 2.98917C17.3369 3.31583 17.5 3.70833 17.5 4.16667V15.8333C17.5 16.2917 17.3369 16.6842 17.0108 17.0108C16.6842 17.3369 16.2917 17.5 15.8333 17.5H4.16667Z" fill="#00BC62"/>
</svg>
