<svg width="20" height="20" viewBox="0 0 20 20" fill="none" xmlns="http://www.w3.org/2000/svg">
<path d="M6.25008 1.42578C5.79352 1.42578 5.35164 1.68648 5.35164 2.42188V3.39844H5.89852V2.5H6.60164V15.6763C6.86078 15.7522 7.08836 15.9101 7.25032 16.1262C7.41227 16.3422 7.4999 16.605 7.50008 16.875C7.50008 17.2065 7.36838 17.5245 7.13396 17.7589C6.89954 17.9933 6.5816 18.125 6.25008 18.125C5.91856 18.125 5.60062 17.9933 5.3662 17.7589C5.13177 17.5245 5.00008 17.2065 5.00008 16.875C5.00025 16.605 5.08787 16.3422 5.24983 16.1261C5.41178 15.91 5.63937 15.7522 5.89852 15.6763V14.1016H5.35164V14.9219H5.35203C4.61273 15.2607 4.10164 16.0055 4.10164 16.875C4.10164 18.0657 5.05938 19.0234 6.25008 19.0234C7.44078 19.0234 8.39852 18.0657 8.39852 16.875C8.39852 16.0055 7.88742 15.2607 7.14813 14.9219H7.14852V2.42188C7.14852 1.68648 6.7066 1.42578 6.25008 1.42578ZM10.0001 2.06145C9.52887 2.8468 9.01992 3.59437 8.47414 4.30512C8.26533 4.21858 8.0578 4.12896 7.85164 4.03629V4.78168C8.51422 4.50785 9.23953 4.35613 10.0001 4.35613C13.113 4.35613 15.644 6.88715 15.644 10C15.644 13.1129 13.113 15.6439 10.0001 15.6439C9.57016 15.6439 9.15137 15.5955 8.74879 15.504C8.92206 15.8183 9.03394 16.1626 9.07848 16.5187C9.40238 16.9809 9.70978 17.4545 10.0001 17.9386C10.4713 17.1532 10.9802 16.4057 11.526 15.6949C12.3541 16.0375 13.1686 16.4305 13.9694 16.875C13.9848 15.9593 14.0518 15.0574 14.1691 14.169C15.0665 14.0508 15.97 13.9841 16.8751 13.9693C16.4305 13.1685 16.0376 12.354 15.695 11.5259C16.4057 10.9802 17.1533 10.4712 17.9386 10C17.1533 9.52879 16.4057 9.01984 15.695 8.47406C16.0375 7.64602 16.4305 6.83148 16.875 6.0307C15.9593 6.01531 15.0575 5.94828 14.1691 5.83098C14.0508 4.93354 13.9841 4.03007 13.9693 3.125C13.1685 3.56953 12.3541 3.9625 11.5259 4.30508C10.9802 3.59437 10.4712 2.8468 10 2.06145H10.0001ZM5.35164 4.10156V4.64844H5.62508V5.35156H5.35164V5.89844H5.89852V4.10156H5.35164ZM10.0001 5.05922C9.22945 5.05922 8.50102 5.23555 7.85164 5.54906V14.451C8.50102 14.7645 9.22945 14.9408 10.0001 14.9408C12.733 14.9408 14.9409 12.7329 14.9409 10C14.9409 7.26711 12.733 5.05922 10.0001 5.05922ZM4.64852 5.95586C4.14163 5.99706 3.63356 6.02204 3.12508 6.03074C3.56961 6.83152 3.96258 7.64598 4.30516 8.4741C3.59445 9.0198 2.84687 9.52879 2.06152 10C2.84687 10.4712 3.59445 10.9802 4.3052 11.5259C3.96262 12.354 3.56965 13.1685 3.12512 13.9693C3.6373 13.9779 4.14504 14.0033 4.64855 14.044V11.7923C4.45457 11.2147 4.35583 10.6093 4.35621 10C4.35584 9.3907 4.45457 8.7854 4.64855 8.20781L4.64852 5.95586ZM5.35164 6.60156V7.14844H5.62508V7.85156H5.35164V8.39844H5.89852V6.60156H5.35164ZM5.35164 9.10156V9.64844H5.62508V10.3516H5.35164V10.8984H5.89852V9.10156H5.35164ZM5.35164 11.6016V12.1484H5.62508V12.8516H5.35164V13.3984H5.89852V11.6016H5.35164ZM6.3325 15.9628C5.34867 15.9628 5.34867 17.0049 5.34867 17.0049C5.34867 17.0049 5.62406 16.5987 5.79047 16.4227C5.95434 16.2495 6.3325 15.9628 6.3325 15.9628Z" fill="#00BC62"/>
</svg>
