<svg width="20" height="20" viewBox="0 0 20 20" fill="none" xmlns="http://www.w3.org/2000/svg">
<path d="M14.2852 10.3289C14.3977 10.4348 14.4876 10.5615 14.55 10.7016C14.6124 10.8418 14.6459 10.9926 14.6486 11.1454C14.6514 11.2983 14.6233 11.4502 14.566 11.5924C14.5088 11.7346 14.4234 11.8643 14.3149 11.9741C14.2044 12.0856 14.0725 12.1747 13.9267 12.2361C13.781 12.2976 13.6243 12.3302 13.4657 12.3321C13.157 12.328 12.8611 12.2106 12.6363 12.0031C11.9257 11.3393 10.9817 10.969 10 10.969C9.01832 10.969 8.0743 11.3393 7.36369 12.0031C7.25152 12.1092 7.11914 12.1927 6.97408 12.2486C6.82903 12.3046 6.67414 12.332 6.51827 12.3293C6.36241 12.3266 6.20861 12.2939 6.06566 12.2329C5.9227 12.172 5.7934 12.084 5.68513 11.9741C5.57686 11.8641 5.49174 11.7344 5.43464 11.5922C5.37753 11.45 5.34955 11.2982 5.3523 11.1455C5.35505 10.9927 5.38848 10.8419 5.45067 10.7018C5.51286 10.5617 5.60259 10.435 5.71475 10.3289C6.86862 9.2475 8.40356 8.644 10 8.644C11.5964 8.644 13.1314 9.2475 14.2852 10.3289ZM17.6423 7.05779C15.6012 5.09777 12.8575 4 10 4C7.1425 4 4.39882 5.09777 2.35765 7.05779C2.24619 7.16357 2.1572 7.28994 2.09583 7.42961C2.03446 7.56927 2.00192 7.71947 2.00008 7.87152C1.99825 8.02358 2.02715 8.17449 2.08514 8.31554C2.14312 8.45659 2.22903 8.58499 2.3379 8.69332C2.44667 8.80287 2.57644 8.89029 2.71976 8.95057C2.86308 9.01085 3.01713 9.04281 3.17308 9.04461C3.32903 9.0464 3.4838 9.01801 3.62853 8.96105C3.77325 8.90409 3.90508 8.81969 4.01645 8.71268C5.61588 7.18053 7.76354 6.3227 10 6.3227C12.2365 6.3227 14.3841 7.18053 15.9835 8.71268C16.2049 8.92528 16.503 9.04355 16.8129 9.04172C16.971 9.04157 17.1274 9.0107 17.2731 8.9509C17.4189 8.8911 17.5511 8.80355 17.6621 8.69332C17.771 8.58499 17.8569 8.45659 17.9149 8.31554C17.9728 8.17449 18.0018 8.02358 17.9999 7.87152C17.9981 7.71947 17.9655 7.56927 17.9042 7.42961C17.8428 7.28994 17.7538 7.16357 17.6423 7.05779ZM10 12.9031C9.68754 12.9031 9.3821 12.9939 9.1223 13.1641C8.8625 13.3342 8.66001 13.5761 8.54044 13.859C8.42087 14.1419 8.38958 14.4533 8.45054 14.7536C8.5115 15.054 8.66196 15.3299 8.8829 15.5465C9.10384 15.763 9.38534 15.9105 9.69179 15.9702C9.99825 16.03 10.3159 15.9993 10.6046 15.8821C10.8932 15.7649 11.14 15.5665 11.3136 15.3118C11.4872 15.0572 11.5798 14.7578 11.5798 14.4516C11.5798 14.0409 11.4134 13.647 11.1171 13.3567C10.8208 13.0663 10.419 12.9031 10 12.9031Z" fill="#125099"/>
</svg>
