<svg width="20" height="20" viewBox="0 0 20 20" fill="none" xmlns="http://www.w3.org/2000/svg">
<path d="M4.79292 0.910889L4.85933 1.76519L4.20698 2.32183L5.04292 2.52378L5.37104 3.3148L5.82026 2.58511L6.67183 2.51675L6.11714 1.86401L6.31636 1.0312L5.52339 1.35737L4.79292 0.910889ZM18.125 1.24995C17.9592 1.24995 17.8002 1.3158 17.683 1.43301C17.5658 1.55022 17.5 1.70919 17.5 1.87495C17.5 2.04071 17.5658 2.19968 17.683 2.31689C17.8002 2.4341 17.9592 2.49995 18.125 2.49995C18.2907 2.49995 18.4497 2.4341 18.5669 2.31689C18.6841 2.19968 18.75 2.04071 18.75 1.87495C18.75 1.70919 18.6841 1.55022 18.5669 1.43301C18.4497 1.3158 18.2907 1.24995 18.125 1.24995ZM9.36714 1.66011C9.20138 1.66011 9.04241 1.72596 8.9252 1.84317C8.80799 1.96038 8.74214 2.11935 8.74214 2.28511C8.74214 2.45087 8.80799 2.60984 8.9252 2.72705C9.04241 2.84426 9.20138 2.91011 9.36714 2.91011C9.5329 2.91011 9.69187 2.84426 9.80908 2.72705C9.92629 2.60984 9.99214 2.45087 9.99214 2.28511C9.99214 2.11935 9.92629 1.96038 9.80908 1.84317C9.69187 1.72596 9.5329 1.66011 9.36714 1.66011ZM16.5507 1.92729C16.1914 1.99526 15.8593 2.20776 15.539 2.48511C15.2421 2.74019 14.9648 3.05776 14.7304 3.40112C13.996 3.5187 13.2617 3.81792 12.7695 4.22651C12.1406 4.74214 11.582 5.62495 11.2773 6.53511C10.9882 6.6562 10.7148 6.80073 10.4921 6.95698C9.88667 7.38276 9.57417 8.19917 9.3437 8.91011C9.11323 9.62495 8.99995 10.25 8.99995 10.25L9.69526 10.375C9.69526 10.375 9.80073 9.78901 10.0117 9.12886C10.2265 8.4687 10.5898 7.74995 10.8984 7.53511C10.9492 7.49995 11.0156 7.46089 11.0742 7.42573C11.0507 7.64839 11.0507 7.87104 11.0859 8.08198C11.1562 8.52729 11.3984 8.95308 11.8281 9.18355C12.1328 9.34761 12.4765 9.30855 12.7656 9.19136C13.0546 9.07026 13.3125 8.87105 13.5351 8.63667C13.7578 8.4023 13.9414 8.12495 14.0507 7.83198C14.1601 7.53901 14.1992 7.20698 14.0585 6.89839H14.0546C13.9023 6.57026 13.6093 6.35933 13.2968 6.26948C12.9843 6.17964 12.6484 6.18355 12.3125 6.23433C12.2539 6.24214 12.1992 6.26167 12.1406 6.27339C12.4296 5.6562 12.8437 5.07417 13.2148 4.76558C13.457 4.56636 13.8632 4.37495 14.2968 4.23433C14.2421 4.38276 14.1992 4.5312 14.1796 4.68355C14.1171 5.0937 14.207 5.53901 14.5351 5.8437C14.7734 6.06245 15.0937 6.09761 15.375 6.05073C15.6523 6.00386 15.9218 5.87886 16.164 5.7187C16.4062 5.55464 16.621 5.35151 16.7734 5.11323C16.9257 4.87495 17.0273 4.57026 16.9296 4.26558V4.26167C16.8007 3.86831 16.4804 3.598 16.125 3.46987C15.9726 3.41519 15.8125 3.38433 15.6484 3.36597C15.7617 3.23862 15.8789 3.11948 15.996 3.01753C16.2617 2.7894 16.5312 2.64644 16.6835 2.61792L16.5507 1.92729ZM6.82808 3.29644L6.23433 3.66987L7.58198 5.82808L5.37886 5.94136L6.41401 8.19917L7.05464 7.9023L6.44917 6.5898L8.81636 6.4687L6.82808 3.29644ZM15.2812 4.05073C15.5195 4.04683 15.7304 4.07417 15.8867 4.13276C16.0976 4.20698 16.2031 4.30073 16.2578 4.47651C16.2734 4.51948 16.2656 4.60542 16.1835 4.73433C16.0976 4.86714 15.9453 5.01558 15.7734 5.13276C15.5976 5.24995 15.4023 5.33198 15.2578 5.35542C15.1093 5.38276 15.0429 5.35542 15.0117 5.32808C14.875 5.20308 14.8359 5.04683 14.875 4.78511C14.9062 4.57417 15.0039 4.32026 15.1484 4.05855C15.1953 4.05855 15.2382 4.05073 15.2812 4.05073ZM3.7105 4.80464C3.54474 4.80464 3.38577 4.87049 3.26856 4.9877C3.15135 5.10491 3.0855 5.26388 3.0855 5.42964C3.0855 5.5954 3.15135 5.75437 3.26856 5.87158C3.38577 5.98879 3.54474 6.05464 3.7105 6.05464C3.79261 6.05469 3.87392 6.03856 3.9498 6.00718C4.02567 5.97579 4.09461 5.92976 4.15269 5.87172C4.21077 5.81368 4.25684 5.74476 4.28828 5.66891C4.31971 5.59305 4.33589 5.51175 4.33589 5.42964C4.33589 5.34753 4.31971 5.26623 4.28828 5.19037C4.25684 5.11452 4.21077 5.0456 4.15269 4.98756C4.09461 4.92952 4.02567 4.88349 3.9498 4.8521C3.87392 4.82072 3.79261 4.80459 3.7105 4.80464ZM17.621 6.25776L17.0585 6.9062L16.207 6.83589L16.6523 7.57026L16.3203 8.35933L17.1562 8.16401L17.8046 8.72261L17.8789 7.86714L18.6093 7.42183L17.8203 7.08979L17.621 6.25776ZM12.7968 6.9023C12.9101 6.9062 13.0156 6.92183 13.0976 6.94526C13.2656 6.99214 13.3554 7.06245 13.4179 7.19526C13.4531 7.26948 13.457 7.4062 13.3906 7.58589C13.3242 7.76948 13.1875 7.98042 13.0234 8.1562C12.8593 8.33198 12.6601 8.47261 12.496 8.53901C12.332 8.60542 12.2304 8.60151 12.164 8.56636H12.1601C11.9335 8.44136 11.8242 8.26167 11.7812 7.97261C11.7421 7.72651 11.7695 7.41401 11.8515 7.07808C12.0429 7.01167 12.2343 6.95698 12.4179 6.92964C12.5546 6.91011 12.6796 6.9023 12.7968 6.9023ZM4.89058 8.92964C4.60933 8.92183 4.43354 8.98823 4.32417 9.09761C4.21479 9.20698 4.14839 9.38276 4.1562 9.66401C4.16401 9.94917 4.25776 10.3242 4.43745 10.7421C4.79683 11.582 5.50386 12.5937 6.45308 13.5468C7.40229 14.496 8.41792 15.1992 9.25776 15.5585C9.67183 15.7382 10.0468 15.832 10.332 15.8398C10.6171 15.8515 10.789 15.7812 10.8984 15.6718C11.0078 15.5625 11.0781 15.3906 11.0664 15.1054C11.0585 14.8203 10.9648 14.4453 10.7851 14.0273C10.4257 13.1914 9.72261 12.1757 8.77339 11.2265C7.82417 10.2734 6.80855 9.57026 5.9687 9.21089C5.55073 9.0312 5.17573 8.93745 4.89058 8.92964ZM13.9531 10.1523L12.664 12.2617L11.5273 11.1718L11.0429 11.6796L12.8046 13.371L14.125 11.2148L15.6367 12.4765L19.125 10.9843L18.8515 10.3359L15.7539 11.664L13.9531 10.1523ZM3.64956 10.6484L2.9605 12.9101C4.57808 14.8281 6.46479 15.9062 8.51167 16.6093L9.35542 16.3515C9.23433 16.3085 9.10542 16.2578 8.97651 16.2031C8.02339 15.7968 6.95698 15.0468 5.95698 14.0429C4.95308 13.039 4.20308 11.9726 3.79526 11.0195C3.74019 10.8945 3.69175 10.7695 3.64956 10.6484ZM2.71909 13.7031L2.17183 15.5C3.30034 16.5546 4.47651 17.0312 5.71089 17.4609L7.4062 16.9453C5.7187 16.2578 4.12495 15.2539 2.71909 13.7031ZM14.375 13.75C14.2092 13.75 14.0502 13.8158 13.933 13.933C13.8158 14.0502 13.75 14.2092 13.75 14.375C13.75 14.5407 13.8158 14.6997 13.933 14.8169C14.0502 14.9341 14.2092 15 14.375 15C14.5407 15 14.6997 14.9341 14.8169 14.8169C14.9341 14.6997 15 14.5407 15 14.375C15 14.2092 14.9341 14.0502 14.8169 13.933C14.6997 13.8158 14.5407 13.75 14.375 13.75ZM1.94565 16.246L1.15308 18.8476L4.60151 17.7968C3.71206 17.4414 2.81323 16.9882 1.94565 16.246Z" fill="#ED0000"/>
</svg>
