<svg width="20" height="20" viewBox="0 0 20 20" fill="none" xmlns="http://www.w3.org/2000/svg">
<path d="M12 6.6665V4.6665C12 3.55984 11.1066 2.6665 9.99998 2.6665C8.89331 2.6665 7.99998 3.55984 7.99998 4.6665H9.33331C9.33331 4.29984 9.63331 3.99984 9.99998 3.99984C10.3666 3.99984 10.6666 4.29984 10.6666 4.6665V6.6665H5.33331C6.06665 6.6665 6.66665 6.0665 6.66665 5.33317V2.6665H2.66665V5.33317C2.66665 6.0665 3.26665 6.6665 3.99998 6.6665H1.33331V7.99984H2.66665V13.3332H13.3333V7.99984H14.6666V6.6665H12ZM8.66665 11.9998H7.33331V7.99984H8.66665V11.9998Z" fill="#4372FF"/>
</svg>
