<svg width="20" height="20" viewBox="0 0 20 20" fill="none" xmlns="http://www.w3.org/2000/svg">
<path fill-rule="evenodd" clip-rule="evenodd" d="M10.0001 18.3334C14.6025 18.3334 18.3334 14.6025 18.3334 10.0001C18.3334 5.39771 14.6025 1.66675 10.0001 1.66675C5.39771 1.66675 1.66675 5.39771 1.66675 10.0001C1.66675 14.6025 5.39771 18.3334 10.0001 18.3334ZM9.06023 12.7428V14.1667H10.9274V11.5524L12.5815 10.5019L12.0552 9.79L10.9274 10.5136V9.47487L12.5941 8.41278L12.0677 7.70083L10.9274 8.43612V7.304H13.3334V5.83341H6.66675V7.304H9.06023V9.6266L7.48128 10.6303L8.0076 11.3423L9.06023 10.6653V11.7041L7.48128 12.7078L7.99507 13.4198L9.06023 12.7428Z" fill="#125099"/>
</svg>
