<svg width="20" height="20" viewBox="0 0 20 20" fill="none" xmlns="http://www.w3.org/2000/svg">
<path d="M10.4427 1.61932C10.304 1.5565 10.1553 1.52344 10 1.52344C9.84471 1.52344 9.69603 1.5565 9.55726 1.61932L3.33577 4.2611C2.60888 4.56859 2.06702 5.28606 2.07033 6.15233C2.08685 9.43223 3.43489 15.4333 9.12774 18.161C9.67951 18.4255 10.3205 18.4255 10.8723 18.161C16.5651 15.4333 17.9132 9.43223 17.9297 6.15233C17.933 5.28606 17.3911 4.56859 16.6642 4.2611L10.4427 1.61932ZM6.85787 10.9862C7.01646 11.0259 7.18497 11.0457 7.35678 11.0457C8.5231 11.0457 9.47135 10.0968 9.47135 8.92966V6.8136H10.9317C11.3315 6.8136 11.6983 7.03843 11.8767 7.39882L12.1146 7.87163H14.2292C14.5199 7.87163 14.7578 8.10969 14.7578 8.40065V9.45868C14.7578 10.9201 13.575 12.1038 12.1146 12.1038H10.5286V13.7801C10.5286 14.0214 10.3337 14.2198 10.0892 14.2198C10.0297 14.2198 9.97026 14.2066 9.9174 14.1835L6.65632 12.7849C6.43826 12.6923 6.29949 12.4774 6.29949 12.2426C6.29949 12.15 6.31931 12.0608 6.36226 11.9781L6.85787 10.9862ZM6.82813 6.8136H8.41407V8.92966C8.41407 9.51489 7.94159 9.98769 7.35678 9.98769C6.77196 9.98769 6.29949 9.51489 6.29949 8.92966V7.34261C6.29949 7.05166 6.53738 6.8136 6.82813 6.8136ZM11.0573 8.40065C11.0573 8.10969 10.8194 7.87163 10.5286 7.87163C10.2379 7.87163 10 8.10969 10 8.40065C10 8.69161 10.2379 8.92966 10.5286 8.92966C10.8194 8.92966 11.0573 8.69161 11.0573 8.40065Z" fill="#ED0000"/>
</svg>
