<svg width="20" height="20" viewBox="0 0 20 20" fill="none" xmlns="http://www.w3.org/2000/svg">
<path d="M1.66675 5.00008L7.50008 10.8334H1.66675V13.3334H10.0001L15.8334 19.1667L16.8751 18.1251L2.70841 3.95841L1.66675 5.00008ZM17.0834 10.8334H18.3334V13.3334H17.0834V10.8334ZM15.0001 10.8334H16.2501V13.3334H15.0001V10.8334ZM15.7084 4.06675C16.2251 3.55841 16.5417 2.85841 16.5417 2.08341H15.2917C15.2917 2.91675 14.5834 3.62508 13.7501 3.62508V4.87508C15.6167 4.87508 17.0834 6.40008 17.0834 8.26675V10.0001H18.3334V8.26675C18.3334 6.40841 17.2667 4.80841 15.7084 4.06675ZM12.0834 7.25008H13.3584C14.2334 7.25008 15.0001 7.86675 15.0001 8.95841V10.0001H16.2501V8.67508C16.2501 7.17508 14.9167 6.04175 13.3584 6.04175H12.0834C11.2501 6.04175 10.5417 5.22508 10.5417 4.37508C10.5417 3.52508 11.2501 2.91675 12.0834 2.91675V1.66675C11.343 1.66675 10.6329 1.96087 10.1094 2.48441C9.58587 3.00795 9.29175 3.71802 9.29175 4.45841C9.29175 5.19881 9.58587 5.90888 10.1094 6.43242C10.6329 6.95596 11.343 7.25008 12.0834 7.25008ZM14.1667 13.2751V10.8334H11.7251L14.1667 13.2751Z" fill="#ED0000"/>
</svg>
