<svg width="20" height="20" viewBox="0 0 20 20" fill="none" xmlns="http://www.w3.org/2000/svg">
<path d="M15.8259 1.66675H7.5084C6.58257 1.66675 5.8334 2.41591 5.8334 3.34175V8.03925L1.91507 11.9076C1.79766 12.0237 1.7174 12.1721 1.68447 12.3339C1.65153 12.4957 1.66741 12.6636 1.73009 12.8164C1.79277 12.9692 1.89942 13.0999 2.03651 13.1919C2.1736 13.284 2.33494 13.3332 2.50007 13.3334V17.5001C2.50007 17.7211 2.58786 17.9331 2.74414 18.0893C2.90042 18.2456 3.11239 18.3334 3.3334 18.3334H16.6667C16.8877 18.3334 17.0997 18.2456 17.256 18.0893C17.4123 17.9331 17.5001 17.7211 17.5001 17.5001V3.34091C17.5001 2.41591 16.7517 1.66675 15.8259 1.66675ZM9.10173 12.5926V16.6667H4.16673V12.0267L6.6559 9.56925L9.10173 12.0717V12.5926ZM10.8334 7.50008H9.16673V5.83341H10.8334V7.50008ZM14.1667 14.1667H12.5001V12.5001H14.1667V14.1667ZM14.1667 10.8334H12.5001V9.16675H14.1667V10.8334ZM14.1667 7.50008H12.5001V5.83341H14.1667V7.50008Z" fill="#125099"/>
<path d="M5.83325 12.5H7.49992V14.1667H5.83325V12.5Z" fill="#125099"/>
</svg>
