<svg width="20" height="20" viewBox="0 0 20 20" fill="none" xmlns="http://www.w3.org/2000/svg">
<path fill-rule="evenodd" clip-rule="evenodd" d="M9.00008 17.3334C13.6025 17.3334 17.3334 13.6025 17.3334 9.00008C17.3334 4.39771 13.6025 0.666748 9.00008 0.666748C4.39771 0.666748 0.666748 4.39771 0.666748 9.00008C0.666748 13.6025 4.39771 17.3334 9.00008 17.3334ZM8.06023 11.7428V13.1667H9.9274V10.5524L11.5815 9.50195L11.0552 8.79L9.9274 9.51362V8.47487L11.5941 7.41278L11.0677 6.70083L9.9274 7.43612V6.304H12.3334V4.83341H5.66675V6.304H8.06023V8.6266L6.48128 9.63033L7.0076 10.3423L8.06023 9.66535V10.7041L6.48128 11.7078L6.99507 12.4198L8.06023 11.7428Z" fill="#125099"/>
</svg>
