<svg width="20" height="20" viewBox="0 0 20 20" fill="none" xmlns="http://www.w3.org/2000/svg">
<path d="M14.64 6.4865L13.6867 3.15317C13.6479 3.01323 13.5643 2.88986 13.4487 2.80196C13.3331 2.71406 13.1919 2.66648 13.0467 2.6665H2.95335C2.65335 2.6665 2.39335 2.8665 2.31335 3.15317L1.36002 6.4865C1.24002 6.9065 1.56002 7.33317 2.00002 7.33317H3.46669L2.66669 13.3332H4.00002L4.44669 9.99984H11.56L12 13.3332H13.3334L12.5334 7.33317H14C14.44 7.33317 14.76 6.9065 14.64 6.4865ZM4.62002 8.6665L4.80002 7.33317H11.2L11.38 8.6665H4.62002Z" fill="#4372FF"/>
</svg>
