<svg width="20" height="20" viewBox="0 0 20 20" fill="none" xmlns="http://www.w3.org/2000/svg">
<path d="M5.83325 15C4.44436 15 3.26381 14.5139 2.29159 13.5417C1.31936 12.5694 0.833252 11.3889 0.833252 10C0.833252 8.61111 1.31936 7.43056 2.29159 6.45833C3.26381 5.48611 4.44436 5 5.83325 5C6.95825 5 7.94103 5.31583 8.78159 5.9475C9.62159 6.57972 10.2083 7.375 10.5416 8.33333H17.4999C17.9583 8.33333 18.3508 8.49639 18.6774 8.8225C19.0035 9.14917 19.1666 9.54167 19.1666 10C19.1666 10.5 18.993 10.9028 18.6458 11.2083C18.2985 11.5139 17.9166 11.6667 17.4999 11.6667V13.3333C17.4999 13.7917 17.3369 14.1842 17.0108 14.5108C16.6841 14.8369 16.2916 15 15.8333 15C15.3749 15 14.9824 14.8369 14.6558 14.5108C14.3296 14.1842 14.1666 13.7917 14.1666 13.3333V11.6667H10.5416C10.2083 12.625 9.62159 13.4203 8.78159 14.0525C7.94103 14.6842 6.95825 15 5.83325 15ZM5.83325 11.6667C6.29159 11.6667 6.68381 11.5033 7.00992 11.1767C7.33659 10.8506 7.49992 10.4583 7.49992 10C7.49992 9.54167 7.33659 9.14917 7.00992 8.8225C6.68381 8.49639 6.29159 8.33333 5.83325 8.33333C5.37492 8.33333 4.9827 8.49639 4.65659 8.8225C4.32992 9.14917 4.16659 9.54167 4.16659 10C4.16659 10.4583 4.32992 10.8506 4.65659 11.1767C4.9827 11.5033 5.37492 11.6667 5.83325 11.6667Z" fill="#ED0000"/>
</svg>
