<svg width="20" height="20" viewBox="0 0 20 20" fill="none" xmlns="http://www.w3.org/2000/svg">
<path d="M2.66667 14.6668H13.3333C13.5101 14.6668 13.6797 14.5966 13.8047 14.4716C13.9298 14.3465 14 14.177 14 14.0002V3.3335C14 2.23083 13.1027 1.3335 12 1.3335H4C2.89733 1.3335 2 2.23083 2 3.3335V14.0002C2 14.177 2.07024 14.3465 2.19526 14.4716C2.32029 14.5966 2.48986 14.6668 2.66667 14.6668ZM12 2.61616C12.0875 2.61616 12.1742 2.63341 12.2551 2.66691C12.336 2.70041 12.4095 2.74952 12.4714 2.81142C12.5333 2.87333 12.5824 2.94682 12.6159 3.02771C12.6494 3.10859 12.6667 3.19528 12.6667 3.28283C12.6667 3.37038 12.6494 3.45707 12.6159 3.53795C12.5824 3.61884 12.5333 3.69233 12.4714 3.75423C12.4095 3.81614 12.336 3.86525 12.2551 3.89875C12.1742 3.93225 12.0875 3.9495 12 3.9495C11.8232 3.9495 11.6536 3.87926 11.5286 3.75423C11.4036 3.62921 11.3333 3.45964 11.3333 3.28283C11.3333 3.10602 11.4036 2.93645 11.5286 2.81142C11.6536 2.6864 11.8232 2.61616 12 2.61616ZM10 2.61616C10.0875 2.61616 10.1742 2.63341 10.2551 2.66691C10.336 2.70041 10.4095 2.74952 10.4714 2.81142C10.5333 2.87333 10.5824 2.94682 10.6159 3.02771C10.6494 3.10859 10.6667 3.19528 10.6667 3.28283C10.6667 3.37038 10.6494 3.45707 10.6159 3.53795C10.5824 3.61884 10.5333 3.69233 10.4714 3.75423C10.4095 3.81614 10.336 3.86525 10.2551 3.89875C10.1742 3.93225 10.0875 3.9495 10 3.9495C9.82319 3.9495 9.65362 3.87926 9.5286 3.75423C9.40357 3.62921 9.33333 3.45964 9.33333 3.28283C9.33333 3.10602 9.40357 2.93645 9.5286 2.81142C9.65362 2.6864 9.82319 2.61616 10 2.61616ZM8 4.66683C10.206 4.66683 12 6.46083 12 8.66683C12 10.8728 10.206 12.6668 8 12.6668C5.794 12.6668 4 10.8728 4 8.66683C4 6.46083 5.794 4.66683 8 4.66683Z" fill="#FF7A00"/>
<path d="M8.51066 11.2862C9.44333 11.1122 10.2247 10.4096 10.526 9.50957C10.7442 8.87789 10.7076 8.18604 10.424 7.5809C10.3929 7.51434 10.34 7.46044 10.274 7.42817C10.208 7.3959 10.1329 7.38722 10.0613 7.40357C9.65866 7.5029 9.38199 7.70223 9.06133 7.93757C8.53733 8.32223 7.88466 8.80023 6.66666 8.80023C6.12466 8.80023 5.69999 8.7029 5.34399 8.56423L5.33533 8.57023C5.32123 8.97153 5.3978 9.37084 5.55935 9.73845C5.7209 10.1061 5.96326 10.4325 6.26841 10.6935C6.57355 10.9545 6.93362 11.1434 7.32183 11.246C7.71004 11.3486 8.1164 11.3624 8.51066 11.2862Z" fill="#FF7A00"/>
</svg>
