<svg width="20" height="20" viewBox="0 0 20 20" fill="none" xmlns="http://www.w3.org/2000/svg">
<path d="M3.33341 9.16667H2.91675V5.41667H3.75008V9.16667H3.33341ZM14.3984 14.4083C14.5367 14.2196 14.6759 14.0563 14.7917 13.9283C14.9076 14.0563 15.0467 14.22 15.1851 14.4083C15.5359 14.8875 15.8334 15.4592 15.8334 15.985C15.8334 16.6067 15.3522 17.0833 14.7917 17.0833C14.2313 17.0833 13.7501 16.6067 13.7501 15.985C13.7501 15.4592 14.0476 14.8871 14.3984 14.4083ZM16.6667 10.4167H17.0834V12.0833H12.0834V10.4167H12.9167V9.58333C12.9167 9.25181 12.7851 8.93387 12.5506 8.69945C12.3162 8.46503 11.9983 8.33333 11.6667 8.33333V5H12.5001C13.4946 5 14.4485 5.39509 15.1517 6.09835C15.855 6.80161 16.2501 7.75544 16.2501 8.75V10.4167H16.6667ZM7.91675 5H10.0001V9.58333H5.41675V5H7.91675Z" fill="#00BC62" stroke="#00BC62" stroke-width="2"/>
</svg>
