<svg width="20" height="20" viewBox="0 0 20 20" fill="none" xmlns="http://www.w3.org/2000/svg">
<path d="M6.24992 1.66675C6.69195 1.66675 7.11587 1.84234 7.42843 2.1549C7.74099 2.46746 7.91659 2.89139 7.91659 3.33341C7.91659 3.77544 7.74099 4.19937 7.42843 4.51193C7.11587 4.82449 6.69195 5.00008 6.24992 5.00008C5.80789 5.00008 5.38397 4.82449 5.07141 4.51193C4.75885 4.19937 4.58325 3.77544 4.58325 3.33341C4.58325 2.89139 4.75885 2.46746 5.07141 2.1549C5.38397 1.84234 5.80789 1.66675 6.24992 1.66675ZM4.99992 5.83341H7.49992C7.94195 5.83341 8.36587 6.00901 8.67843 6.32157C8.99099 6.63413 9.16659 7.05805 9.16659 7.50008V12.0834H7.91659V18.3334H4.58325V12.0834H3.33325V7.50008C3.33325 7.05805 3.50885 6.63413 3.82141 6.32157C4.13397 6.00901 4.55789 5.83341 4.99992 5.83341ZM13.7499 1.66675C14.1919 1.66675 14.6159 1.84234 14.9284 2.1549C15.241 2.46746 15.4166 2.89139 15.4166 3.33341C15.4166 3.77544 15.241 4.19937 14.9284 4.51193C14.6159 4.82449 14.1919 5.00008 13.7499 5.00008C13.3079 5.00008 12.884 4.82449 12.5714 4.51193C12.2588 4.19937 12.0833 3.77544 12.0833 3.33341C12.0833 2.89139 12.2588 2.46746 12.5714 2.1549C12.884 1.84234 13.3079 1.66675 13.7499 1.66675ZM12.4999 18.3334V13.3334H9.99992L12.1583 7.00841C12.3666 6.32508 12.9999 5.83341 13.7499 5.83341C14.4999 5.83341 15.1333 6.32508 15.3416 7.00841L17.4999 13.3334H14.9999V18.3334H12.4999Z" fill="#125099"/>
</svg>
