<svg width="20" height="20" viewBox="0 0 20 20" fill="none" xmlns="http://www.w3.org/2000/svg">
<path d="M15.4133 11.8511L12.5979 10.5081L11.4471 9.95907L11.5073 9.91747H13.0739C13.1904 9.91747 13.3021 9.8712 13.3844 9.78883C13.4668 9.70647 13.5131 9.59475 13.5131 9.47827V8.32247H13.5091C13.4635 6.79187 12.9557 5.43747 12.1847 4.54367C11.6427 3.84687 10.8637 3.40747 9.99048 3.40747C9.04408 3.40747 8.20828 3.92467 7.66548 4.72607C6.97848 5.61647 6.53268 6.89267 6.49008 8.32247H6.48608V9.47827C6.48608 9.72087 6.68268 9.91747 6.92528 9.91747H8.49628C8.52728 9.93847 8.55868 9.95887 8.59008 9.97927L7.47988 10.4961L4.57308 11.8497C4.34268 11.9577 4.18588 12.2049 4.16008 12.4893C4.15408 12.5307 4.15101 12.5726 4.15088 12.6145V15.8155C4.15088 16.2447 4.44988 16.5923 4.81888 16.5923H15.1801C15.5493 16.5923 15.8481 16.2445 15.8481 15.8155V12.6145C15.8481 12.4535 15.8057 12.3019 15.7317 12.1753C15.6599 12.0331 15.5503 11.9173 15.4133 11.8511Z" fill="#ED0000"/>
<path d="M5.12912 10.5039V9.2877H5.13452C5.18312 7.6533 5.60992 6.1623 6.28972 4.9933C5.95892 4.7917 5.58712 4.6687 5.18752 4.6687C3.85432 4.6687 2.77512 5.9247 2.77512 7.4755C2.77512 8.5605 3.30532 9.4995 4.07992 9.9669L0.810124 11.4889C0.606124 11.5847 0.471924 11.8147 0.471924 12.0719V14.6525C0.471924 14.9983 0.713724 15.2785 1.01072 15.2785H3.17172V12.5705C3.17172 11.8699 3.55932 11.2361 4.16032 10.9545L5.12912 10.5039ZM19.1895 11.5269L15.9199 10.0049C16.6945 9.5375 17.2247 8.5985 17.2247 7.5135C17.2247 5.9627 16.1455 4.7067 14.8123 4.7067C14.4127 4.7067 14.0409 4.8297 13.7101 5.0313C14.3899 6.2003 14.8165 7.6913 14.8653 9.3257H14.8707V10.5419L15.8395 10.9931C16.4405 11.2745 16.8281 11.9083 16.8281 12.6091V15.3171H18.9891C19.2861 15.3171 19.5279 15.0369 19.5279 14.6911V12.1099C19.5277 11.8527 19.3935 11.6227 19.1895 11.5269Z" fill="#ED0000"/>
</svg>
