<svg width="44" height="44" viewBox="0 0 44 44" fill="none" xmlns="http://www.w3.org/2000/svg">
<g clip-path="url(#clip0_32_665)">
<path d="M35.475 18.4063C34.8592 15.2855 33.1789 12.4752 30.7213 10.4556C28.2636 8.436 25.181 7.33229 22 7.33301C16.7017 7.33301 12.1 10.3397 9.80833 14.7397C7.11376 15.0309 4.62185 16.3076 2.8114 18.3244C1.00095 20.3413 -0.000314787 22.9561 7.42367e-08 25.6663C7.42367e-08 31.7347 4.93167 36.6663 11 36.6663H34.8333C39.8933 36.6663 44 32.5597 44 27.4997C44 22.6597 40.2417 18.7363 35.475 18.4063ZM25.6667 23.833V31.1663H18.3333V23.833H12.8333L21.3583 15.308C21.725 14.9413 22.2933 14.9413 22.66 15.308L31.1667 23.833H25.6667Z" fill="#7B7B7B"/>
</g>
<defs>
<clipPath id="clip0_32_665">
<rect width="44" height="44" fill="white"/>
</clipPath>
</defs>
</svg>
