<svg width="24" height="24" viewBox="0 0 24 24" fill="none" xmlns="http://www.w3.org/2000/svg">
<path d="M14.71 17.29C14.8027 17.1975 14.8762 17.0876 14.9264 16.9666C14.9766 16.8456 15.0024 16.7159 15.0024 16.585C15.0024 16.454 14.9766 16.3243 14.9264 16.2034C14.8762 16.0824 14.8027 15.9725 14.71 15.88L10.83 12L14.71 8.11998C14.8026 8.0274 14.876 7.91749 14.9261 7.79652C14.9762 7.67556 15.002 7.54591 15.002 7.41498C15.002 7.28405 14.9762 7.1544 14.9261 7.03343C14.876 6.91247 14.8026 6.80256 14.71 6.70998C14.6174 6.6174 14.5075 6.54396 14.3865 6.49385C14.2656 6.44375 14.1359 6.41796 14.005 6.41796C13.8741 6.41796 13.7444 6.44375 13.6235 6.49385C13.5025 6.54396 13.3926 6.6174 13.3 6.70998L8.71 11.3C8.61729 11.3925 8.54375 11.5024 8.49357 11.6234C8.44338 11.7443 8.41755 11.874 8.41755 12.005C8.41755 12.1359 8.44338 12.2656 8.49357 12.3866C8.54375 12.5076 8.61729 12.6175 8.71 12.71L13.3 17.3C13.68 17.68 14.32 17.68 14.71 17.29Z" fill="#7B7B7B"/>
</svg>
