<svg width="24" height="24" viewBox="0 0 24 24" fill="none" xmlns="http://www.w3.org/2000/svg">
<path d="M17.2899 9.29049C17.1973 9.19779 17.0875 9.12424 16.9665 9.07406C16.8455 9.02388 16.7158 8.99805 16.5849 8.99805C16.4539 8.99805 16.3242 9.02388 16.2032 9.07406C16.0823 9.12424 15.9724 9.19779 15.8799 9.29049L11.9999 13.1705L8.11986 9.29049C8.02727 9.19791 7.91736 9.12447 7.7964 9.07436C7.67544 9.02426 7.54579 8.99847 7.41486 8.99847C7.28393 8.99847 7.15428 9.02426 7.03331 9.07436C6.91235 9.12447 6.80244 9.19791 6.70986 9.29049C6.61727 9.38307 6.54384 9.49298 6.49373 9.61395C6.44363 9.73491 6.41784 9.86456 6.41784 9.99549C6.41784 10.1264 6.44363 10.2561 6.49373 10.377C6.54384 10.498 6.61727 10.6079 6.70986 10.7005L11.2999 15.2905C11.3924 15.3832 11.5023 15.4567 11.6232 15.5069C11.7442 15.5571 11.8739 15.5829 12.0049 15.5829C12.1358 15.5829 12.2655 15.5571 12.3865 15.5069C12.5075 15.4567 12.6173 15.3832 12.7099 15.2905L17.2999 10.7005C17.6799 10.3205 17.6799 9.68049 17.2899 9.29049Z" fill="#7B7B7B"/>
</svg>
