<svg width="13" height="13" viewBox="0 0 13 13" fill="none" xmlns="http://www.w3.org/2000/svg">
<g clip-path="url(#clip0_11_571)">
<path d="M2.4375 1.9627C2.4375 1.77734 2.5873 1.625 2.7752 1.625C2.86406 1.625 2.95039 1.66055 3.01387 1.72402L3.39219 2.10234C3.30078 2.33086 3.25 2.58223 3.25 2.84375C3.25 3.34902 3.43281 3.80859 3.7375 4.16406C3.60293 4.39766 3.63594 4.6998 3.83398 4.90039C4.07266 5.13906 4.45859 5.13906 4.69473 4.90039L7.33789 2.25977C7.57656 2.02109 7.57656 1.63516 7.33789 1.39902C7.1373 1.19844 6.83516 1.16797 6.60156 1.30254C6.24609 0.995312 5.78652 0.8125 5.28125 0.8125C5.01973 0.8125 4.76836 0.863281 4.53984 0.952148L4.16152 0.573828C3.79336 0.205664 3.29316 0 2.7752 0C1.69102 0 0.8125 0.878516 0.8125 1.9627V6.5C0.363086 6.5 0 6.86309 0 7.3125C0 7.76191 0.363086 8.125 0.8125 8.125H12.1875C12.6369 8.125 13 7.76191 13 7.3125C13 6.86309 12.6369 6.5 12.1875 6.5H2.4375V1.9627ZM0.8125 8.9375V9.34375C0.8125 10.0648 1.12734 10.7148 1.625 11.1617V12.1875C1.625 12.6369 1.98809 13 2.4375 13C2.88691 13 3.25 12.6369 3.25 12.1875V11.7812H9.75V12.1875C9.75 12.6369 10.1131 13 10.5625 13C11.0119 13 11.375 12.6369 11.375 12.1875V11.1617C11.8727 10.7148 12.1875 10.0674 12.1875 9.34375V8.9375H0.8125Z" fill="white"/>
</g>
<defs>
<clipPath id="clip0_11_571">
<rect width="13" height="13" fill="white"/>
</clipPath>
</defs>
</svg>
