<svg width="13" height="13" viewBox="0 0 13 13" fill="none" xmlns="http://www.w3.org/2000/svg">
<path d="M10.9688 5.85762C10.7126 5.74519 10.4359 5.68726 10.1562 5.6875H2.84375C2.56407 5.68723 2.28739 5.74507 2.03125 5.85736C1.66923 6.01568 1.36118 6.27603 1.14473 6.6066C0.928295 6.93717 0.812846 7.32363 0.8125 7.71875V10.5625C0.8125 10.6702 0.855301 10.7736 0.931488 10.8498C1.00767 10.9259 1.11101 10.9688 1.21875 10.9688C1.32649 10.9688 1.42983 10.9259 1.50601 10.8498C1.5822 10.7736 1.625 10.6702 1.625 10.5625V10.3594C1.62566 10.3057 1.64727 10.2544 1.68522 10.2165C1.72317 10.1785 1.77446 10.1569 1.82812 10.1562H11.1719C11.2255 10.1569 11.2768 10.1785 11.3148 10.2165C11.3527 10.2544 11.3743 10.3057 11.375 10.3594V10.5625C11.375 10.6702 11.4178 10.7736 11.494 10.8498C11.5702 10.9259 11.6735 10.9688 11.7812 10.9688C11.889 10.9688 11.9923 10.9259 12.0685 10.8498C12.1447 10.7736 12.1875 10.6702 12.1875 10.5625V7.71875C12.1871 7.32367 12.0716 6.93726 11.8552 6.60675C11.6388 6.27623 11.3307 6.01591 10.9688 5.85762ZM9.54688 2.03125H3.45312C3.07602 2.03125 2.71436 2.18105 2.44771 2.44771C2.18105 2.71436 2.03125 3.07602 2.03125 3.45312V5.28125C2.03126 5.29699 2.03493 5.31251 2.04197 5.32659C2.049 5.34066 2.05922 5.35291 2.0718 5.36237C2.08438 5.37182 2.09899 5.37823 2.11447 5.38107C2.12995 5.38391 2.14588 5.38312 2.161 5.37875C2.38277 5.31388 2.61268 5.28105 2.84375 5.28125H2.95115C2.97622 5.28141 3.00046 5.27229 3.01921 5.25565C3.03796 5.23901 3.0499 5.21602 3.05271 5.19111C3.07487 4.99261 3.16938 4.80922 3.31817 4.67597C3.46697 4.54272 3.65964 4.46895 3.85938 4.46875H5.28125C5.48112 4.46877 5.67397 4.54245 5.82293 4.67572C5.97189 4.80898 6.0665 4.99248 6.08867 5.19111C6.09149 5.21602 6.10342 5.23901 6.12217 5.25565C6.14092 5.27229 6.16517 5.28141 6.19023 5.28125H6.81129C6.83636 5.28141 6.8606 5.27229 6.87935 5.25565C6.8981 5.23901 6.91003 5.21602 6.91285 5.19111C6.935 4.99274 7.02939 4.80945 7.17803 4.67622C7.32666 4.54299 7.51914 4.46914 7.71875 4.46875H9.14062C9.3405 4.46877 9.53335 4.54245 9.68231 4.67572C9.83126 4.80898 9.92587 4.99248 9.94805 5.19111C9.95087 5.21602 9.9628 5.23901 9.98155 5.25565C10.0003 5.27229 10.0245 5.28141 10.0496 5.28125H10.1562C10.3873 5.28114 10.6172 5.31406 10.839 5.379C10.8541 5.38338 10.8701 5.38417 10.8856 5.38131C10.9011 5.37845 10.9157 5.37203 10.9283 5.36255C10.9409 5.35306 10.9511 5.34078 10.9581 5.32667C10.9651 5.31256 10.9688 5.29701 10.9688 5.28125V3.45312C10.9688 3.07602 10.8189 2.71436 10.5523 2.44771C10.2856 2.18105 9.92398 2.03125 9.54688 2.03125Z" fill="white"/>
</svg>
