<svg width="24" height="24" viewBox="0 0 24 24" fill="none" xmlns="http://www.w3.org/2000/svg">
<path d="M12 2.00019C10.6845 1.99203 9.38053 2.24512 8.16361 2.74477C6.94669 3.24442 5.84108 3.98069 4.91088 4.91088C3.98069 5.84108 3.24442 6.94669 2.74477 8.16361C2.24512 9.38053 1.99203 10.6845 2.00019 12C1.99203 13.3155 2.24512 14.6195 2.74477 15.8364C3.24442 17.0533 3.98069 18.1589 4.91088 19.0891C5.84108 20.0193 6.94669 20.7556 8.16361 21.2552C9.38053 21.7549 10.6845 22.008 12 21.9998C13.3155 22.008 14.6195 21.7549 15.8364 21.2552C17.0533 20.7556 18.1589 20.0193 19.0891 19.0891C20.0193 18.1589 20.7556 17.0533 21.2552 15.8364C21.7549 14.6195 22.008 13.3155 21.9998 12C22.008 10.6845 21.7549 9.38053 21.2552 8.16361C20.7556 6.94669 20.0193 5.84108 19.0891 4.91088C18.1589 3.98069 17.0533 3.24442 15.8364 2.74477C14.6195 2.24512 13.3155 1.99203 12 2.00019ZM15.8892 16.9999L7.0001 8.1115L8.1115 7.0001L16.9999 15.8892L15.8892 16.9999Z" fill="#EB4335"/>
</svg>
