<svg width="31" height="24" viewBox="0 0 31 24" fill="none" xmlns="http://www.w3.org/2000/svg">
<path d="M26.5642 17V15.032L25.1602 15.992L24.7282 15.356L26.5642 14.096V12.896L25.1602 13.856L24.7282 13.22L26.5642 11.96V9.38H23.8882V8.432H30.3082V9.38H27.6442V11.348L29.0482 10.376L29.4802 11.012L27.6442 12.272V13.484L29.0482 12.512L29.4802 13.148L27.6442 14.408V17H26.5642Z" fill="#B5B5B5"/>
<path d="M3.376 17V15.048L2.016 15.976L1.36 15L3.376 13.624V12.2L2.032 13.128L1.36 12.152L3.376 10.776V7.592H0.32V5.576H8.832V7.592H5.76V9.144L7.216 8.136L7.888 9.112L5.76 10.568V11.992L7.2 11L7.872 11.976L5.76 13.416V17H3.376Z" fill="#B5B5B5"/>
<path d="M15.7644 14.2835C15.599 14.2922 15.4746 14.2263 15.3912 14.0858C15.3079 13.9456 15.3079 13.8034 15.3912 13.659L16.261 12.1525L13.3743 10.4859C13.272 10.4268 13.2064 10.3427 13.1774 10.2336C13.1479 10.1246 13.1627 10.0189 13.2218 9.91668C13.2808 9.81444 13.365 9.74868 13.4742 9.71939C13.5831 9.69021 13.6887 9.70514 13.791 9.76417L16.6777 11.4308L17.5475 9.92431C17.6308 9.77997 17.7541 9.70872 17.9172 9.71055C18.0805 9.71275 18.1997 9.78767 18.2749 9.9353L20.1376 13.5006C20.2102 13.6387 20.2083 13.7739 20.1319 13.9063C20.0555 14.0386 19.9394 14.1078 19.7835 14.114L15.7644 14.2835Z" fill="#B5B5B5"/>
</svg>
