<svg width="16" height="16" viewBox="0 0 16 16" fill="none" xmlns="http://www.w3.org/2000/svg">
<path d="M6.66658 2.6665C5.95934 2.6665 5.28106 2.94746 4.78097 3.44755C4.28087 3.94765 3.99992 4.62593 3.99992 5.33317C3.99992 6.04041 4.28087 6.71869 4.78097 7.21879C5.28106 7.71889 5.95934 7.99984 6.66658 7.99984C7.37383 7.99984 8.05211 7.71889 8.5522 7.21879C9.0523 6.71869 9.33325 6.04041 9.33325 5.33317C9.33325 4.62593 9.0523 3.94765 8.5522 3.44755C8.05211 2.94746 7.37383 2.6665 6.66658 2.6665ZM11.6666 8.6665C9.99992 8.6665 8.66658 9.99984 8.66658 11.6665C8.66658 13.3332 9.99992 14.6665 11.6666 14.6665C13.3333 14.6665 14.6666 13.3332 14.6666 11.6665C14.6666 9.99984 13.3333 8.6665 11.6666 8.6665ZM6.66658 9.33317C3.71992 9.33317 1.33325 10.5265 1.33325 11.9998V13.3332H7.66658C7.44654 12.8051 7.33325 12.2386 7.33325 11.6665C7.33611 10.876 7.55512 10.1014 7.96658 9.4265C7.54658 9.37317 7.11992 9.33317 6.66658 9.33317ZM11.6666 9.6665C12.7733 9.6665 13.6666 10.5598 13.6666 11.6665C13.6666 12.0398 13.5666 12.3865 13.3866 12.6665L10.6666 9.9465C10.9466 9.7665 11.2933 9.6665 11.6666 9.6665ZM9.94658 10.6665L12.6666 13.3865C12.3866 13.5665 12.0399 13.6665 11.6666 13.6665C10.5599 13.6665 9.66658 12.7732 9.66658 11.6665C9.66658 11.2932 9.76658 10.9465 9.94658 10.6665Z" fill="#EB4335"/>
</svg>
