<svg width="16" height="16" viewBox="0 0 16 16" fill="none" xmlns="http://www.w3.org/2000/svg">
<path d="M14 9.3335H2M2 5.3335H14M7.33333 11.3335H8.66667M7.33333 7.3335H8.66667M7.33333 3.3335H8.66667M11.6667 13.3335V14.6668M4.33333 13.3335V14.6668M14 1.7335V12.9335C14 12.986 13.9897 13.038 13.9696 13.0866C13.9495 13.1351 13.92 13.1792 13.8828 13.2163C13.8457 13.2535 13.8016 13.2829 13.7531 13.303C13.7045 13.3231 13.6525 13.3335 13.6 13.3335H2.4C2.34747 13.3335 2.29546 13.3231 2.24693 13.303C2.1984 13.2829 2.1543 13.2535 2.11716 13.2163C2.08001 13.1792 2.05055 13.1351 2.03045 13.0866C2.01035 13.038 2 12.986 2 12.9335V1.7335C2 1.62741 2.04214 1.52567 2.11716 1.45065C2.19217 1.37564 2.29391 1.3335 2.4 1.3335H13.6C13.7061 1.3335 13.8078 1.37564 13.8828 1.45065C13.9579 1.52567 14 1.62741 14 1.7335Z" stroke="black" stroke-width="1.5" stroke-linecap="round" stroke-linejoin="round"/>
</svg>
