<svg width="16" height="16" viewBox="0 0 16 16" fill="none" xmlns="http://www.w3.org/2000/svg">
<path d="M4.78125 1.09375V2.90625H11.2188V1.09375H4.78125ZM6.66563 1.5H7.66563L7.16563 2.5L6.66563 1.5ZM9 1.5L9.5 2.5H8.5L9 1.5ZM3.28125 4.28125V15.2188H7.71875V4.28125H3.28125ZM8.28125 4.28125V15.2188H12.7188V4.28125H8.28125ZM13.6875 8.6875V11.3125H15.3125V8.6875H13.6875ZM14.5 9.5C14.6326 9.5 14.7598 9.55268 14.8536 9.64645C14.9473 9.74021 15 9.86739 15 10C15 10.1326 14.9473 10.2598 14.8536 10.3536C14.7598 10.4473 14.6326 10.5 14.5 10.5C14.3674 10.5 14.2402 10.4473 14.1464 10.3536C14.0527 10.2598 14 10.1326 14 10C14 9.86739 14.0527 9.74021 14.1464 9.64645C14.2402 9.55268 14.3674 9.5 14.5 9.5Z" fill="black"/>
</svg>
