<svg width="24" height="24" viewBox="0 0 24 24" fill="none" xmlns="http://www.w3.org/2000/svg">
<path d="M21.7214 11.2498H16.4369C16.2795 10.3292 15.8403 9.4802 15.18 8.81981C14.5196 8.15942 13.6705 7.72023 12.7499 7.56282V2.27832C15.0697 2.45752 17.249 3.46027 18.8943 5.1055C20.5395 6.75074 21.5422 8.93002 21.7214 11.2498ZM21.7214 12.7498C21.5422 15.0696 20.5395 17.2489 18.8943 18.8941C17.249 20.5394 15.0697 21.5421 12.7499 21.7213V16.4368C13.6705 16.2794 14.5196 15.8402 15.18 15.1798C15.8403 14.5194 16.2795 13.6704 16.4369 12.7498H21.7214ZM2.27994 12.7498H7.56444C7.72176 13.6702 8.16073 14.5191 8.82083 15.1794C9.48093 15.8398 10.3296 16.2791 11.2499 16.4368V21.7213C8.93014 21.5421 6.75086 20.5394 5.10563 18.8941C3.46039 17.2489 2.45764 15.0696 2.27844 12.7498H2.27994ZM2.27994 11.2498C2.45909 8.93026 3.46163 6.75117 5.10656 5.10596C6.75149 3.46076 8.93041 2.45786 11.2499 2.27832V7.56282C10.3294 7.72023 9.48032 8.15942 8.81993 8.81981C8.15954 9.4802 7.72035 10.3292 7.56294 11.2498H2.27844H2.27994Z" fill="#FF7A00"/>
</svg>
