<svg width="31" height="24" viewBox="0 0 31 24" fill="none" xmlns="http://www.w3.org/2000/svg">
<path d="M2.904 17V15.032L1.5 15.992L1.068 15.356L2.904 14.096V12.896L1.5 13.856L1.068 13.22L2.904 11.96V9.38H0.228V8.432H6.648V9.38H3.984V11.348L5.388 10.376L5.82 11.012L3.984 12.272V13.484L5.388 12.512L5.82 13.148L3.984 14.408V17H2.904Z" fill="#B5B5B5"/>
<path d="M24.376 17V15.048L23.016 15.976L22.36 15L24.376 13.624V12.2L23.032 13.128L22.36 12.152L24.376 10.776V7.592H21.32V5.576H29.832V7.592H26.76V9.144L28.216 8.136L28.888 9.112L26.76 10.568V11.992L28.2 11L28.872 11.976L26.76 13.416V17H24.376Z" fill="#B5B5B5"/>
<path d="M15.4446 14.0647C15.3695 14.2123 15.2502 14.2871 15.0868 14.2891C14.9237 14.2912 14.8006 14.22 14.7172 14.0757L13.8474 12.5692L10.9607 14.2358C10.8584 14.2949 10.7528 14.3097 10.6438 14.2803C10.5346 14.2512 10.4505 14.1856 10.3915 14.0833C10.3325 13.9811 10.3176 13.8753 10.3469 13.7661C10.3761 13.6571 10.4418 13.5732 10.544 13.5142L13.4308 11.8475L12.561 10.341C12.4776 10.1966 12.4776 10.0543 12.5607 9.91387C12.6443 9.77358 12.7688 9.7078 12.9342 9.71654L16.9532 9.88599C17.1091 9.89219 17.2253 9.96144 17.3017 10.0937C17.3781 10.2261 17.3799 10.3613 17.3073 10.4994L15.4446 14.0647Z" fill="#B5B5B5"/>
</svg>
