<svg width="24" height="24" viewBox="0 0 24 24" fill="none" xmlns="http://www.w3.org/2000/svg">
<path d="M12 2C10.0222 2 8.08879 2.58649 6.4443 3.6853C4.79981 4.78412 3.51809 6.3459 2.76121 8.17316C2.00433 10.0004 1.8063 12.0111 2.19215 13.9509C2.578 15.8907 3.53041 17.6725 4.92894 19.0711C6.32746 20.4696 8.10929 21.422 10.0491 21.8078C11.9889 22.1937 13.9996 21.9957 15.8268 21.2388C17.6541 20.4819 19.2159 19.2002 20.3147 17.5557C21.4135 15.9112 22 13.9778 22 12C21.9975 9.34861 20.9431 6.80655 19.0683 4.93174C17.1934 3.05693 14.6514 2.00255 12 2ZM11.8077 6.61538C12.0359 6.61538 12.259 6.68306 12.4487 6.80984C12.6385 6.93663 12.7864 7.11683 12.8737 7.32767C12.961 7.53851 12.9839 7.77051 12.9394 7.99433C12.8948 8.21816 12.785 8.42375 12.6236 8.58512C12.4622 8.74649 12.2566 8.85638 12.0328 8.9009C11.809 8.94543 11.577 8.92258 11.3661 8.83524C11.1553 8.74791 10.9751 8.60002 10.8483 8.41027C10.7215 8.22052 10.6538 7.99744 10.6538 7.76923C10.6538 7.46321 10.7754 7.16973 10.9918 6.95334C11.2082 6.73695 11.5017 6.61538 11.8077 6.61538ZM12.7692 17.3846H12C11.796 17.3846 11.6003 17.3036 11.4561 17.1593C11.3118 17.0151 11.2308 16.8194 11.2308 16.6154V12C11.0268 12 10.8311 11.919 10.6868 11.7747C10.5426 11.6304 10.4615 11.4348 10.4615 11.2308C10.4615 11.0268 10.5426 10.8311 10.6868 10.6868C10.8311 10.5426 11.0268 10.4615 11.2308 10.4615H12C12.204 10.4615 12.3997 10.5426 12.5439 10.6868C12.6882 10.8311 12.7692 11.0268 12.7692 11.2308V15.8462C12.9732 15.8462 13.1689 15.9272 13.3132 16.0715C13.4574 16.2157 13.5385 16.4114 13.5385 16.6154C13.5385 16.8194 13.4574 17.0151 13.3132 17.1593C13.1689 17.3036 12.9732 17.3846 12.7692 17.3846Z" fill="#007BC3"/>
</svg>
