<svg width="16" height="16" viewBox="0 0 16 16" fill="none" xmlns="http://www.w3.org/2000/svg">
<g clip-path="url(#clip0_32_330)">
<path d="M8.00001 5.99986C8.17682 5.99986 8.34639 6.0701 8.47141 6.19512C8.59643 6.32015 8.66667 6.48972 8.66667 6.66653V9.3332H12.6667C13.0203 9.3332 13.3594 9.47367 13.6095 9.72372C13.8595 9.97377 14 10.3129 14 10.6665V12.6665C14 13.0202 13.8595 13.3593 13.6095 13.6093C13.3594 13.8594 13.0203 13.9999 12.6667 13.9999H3.33334C2.97972 13.9999 2.64058 13.8594 2.39053 13.6093C2.14048 13.3593 2 13.0202 2 12.6665V10.6665C2 10.3129 2.14048 9.97377 2.39053 9.72372C2.64058 9.47367 2.97972 9.3332 3.33334 9.3332H7.33334V6.66653C7.33334 6.48972 7.40358 6.32015 7.5286 6.19512C7.65363 6.0701 7.82319 5.99986 8.00001 5.99986ZM4.44134 2.6392C4.57381 2.75619 4.6544 2.92099 4.6654 3.09738C4.6764 3.27378 4.61691 3.44732 4.5 3.57986C3.74658 4.43137 3.3315 5.52956 3.33334 6.66653C3.33334 6.86453 3.34534 7.05986 3.36934 7.25053C3.38684 7.42373 3.3359 7.5969 3.2274 7.73303C3.11891 7.86917 2.96147 7.95747 2.78874 7.97906C2.616 8.00065 2.44167 7.95382 2.30301 7.84858C2.16435 7.74334 2.07234 7.58804 2.04667 7.41586C2.01562 7.16729 2.00004 6.91703 2 6.66653C1.99815 5.20477 2.53176 3.79296 3.5 2.69786C3.55794 2.63217 3.62826 2.57854 3.70693 2.54004C3.78561 2.50154 3.87109 2.47892 3.95851 2.47347C4.04593 2.46802 4.13357 2.47985 4.21642 2.50829C4.29926 2.53673 4.37569 2.58121 4.44134 2.6392ZM12.5 2.69786C13.4683 3.79296 14.0019 5.20477 14 6.66653C14 6.91986 13.984 7.16986 13.9533 7.41586C13.9444 7.50429 13.9179 7.59003 13.8753 7.66806C13.8328 7.74609 13.775 7.81481 13.7055 7.8702C13.636 7.9256 13.5562 7.96653 13.4706 7.9906C13.3851 8.01467 13.2955 8.02139 13.2074 8.01037C13.1192 7.99934 13.0341 7.9708 12.9571 7.92641C12.8801 7.88202 12.8127 7.82268 12.759 7.75189C12.7053 7.68109 12.6662 7.60027 12.6442 7.51417C12.6222 7.42807 12.6176 7.33843 12.6307 7.25053C12.654 7.05986 12.6667 6.86453 12.6667 6.66653C12.6685 5.52956 12.2534 4.43137 11.5 3.57986C11.4421 3.5142 11.3977 3.43778 11.3693 3.35495C11.3409 3.27213 11.3291 3.18452 11.3346 3.09714C11.3457 2.92067 11.4264 2.75582 11.559 2.63886C11.6247 2.58095 11.7011 2.53654 11.7839 2.50816C11.8667 2.47978 11.9543 2.468 12.0417 2.47347C12.2182 2.48454 12.383 2.56525 12.5 2.69786ZM6.44134 4.40253C6.50703 4.46047 6.56066 4.53078 6.59916 4.60946C6.63766 4.68813 6.66028 4.77362 6.66573 4.86104C6.67118 4.94846 6.65935 5.0361 6.63091 5.11894C6.60247 5.20179 6.55799 5.27822 6.5 5.34386C6.31165 5.55635 6.17094 5.80669 6.08735 6.07806C6.00375 6.34943 5.9792 6.63555 6.01534 6.9172C6.03284 7.09039 5.9819 7.26356 5.8734 7.3997C5.76491 7.53583 5.60747 7.62414 5.43474 7.64573C5.262 7.66732 5.08767 7.62049 4.94901 7.51525C4.81035 7.41001 4.71834 7.2547 4.69267 7.08253C4.63304 6.61341 4.67421 6.13697 4.81344 5.68504C4.95266 5.23311 5.18673 4.8161 5.5 4.46186C5.61688 4.3295 5.7815 4.24891 5.95773 4.23779C6.13396 4.22667 6.30741 4.28591 6.44 4.40253H6.44134ZM10.5 4.4612C10.8134 4.81549 11.0476 5.23261 11.1868 5.68467C11.326 6.13673 11.3671 6.61331 11.3073 7.08253C11.2817 7.2547 11.1897 7.41001 11.051 7.51525C10.9123 7.62049 10.738 7.66732 10.5653 7.64573C10.3925 7.62414 10.2351 7.53583 10.1266 7.3997C10.0181 7.26356 9.96717 7.09039 9.98467 6.9172C10.0209 6.6356 9.99646 6.34951 9.91298 6.07814C9.82949 5.80677 9.68891 5.55641 9.50067 5.34386C9.44247 5.27828 9.39777 5.20187 9.36915 5.11899C9.34052 5.03611 9.32852 4.9484 9.33384 4.86088C9.33916 4.77336 9.3617 4.68775 9.40015 4.60895C9.43861 4.53015 9.49223 4.45971 9.55795 4.40166C9.62366 4.34362 9.70019 4.2991 9.78313 4.27068C9.86608 4.24225 9.95382 4.23046 10.0413 4.23599C10.1288 4.24152 10.2144 4.26426 10.2931 4.3029C10.3718 4.34155 10.4421 4.39534 10.5 4.4612Z" fill="black"/>
</g>
<defs>
<clipPath id="clip0_32_330">
<rect width="16" height="16" fill="white"/>
</clipPath>
</defs>
</svg>
