<svg width="16" height="16" viewBox="0 0 16 16" fill="none" xmlns="http://www.w3.org/2000/svg">
<path d="M3 3C3 2.46957 3.21071 1.96086 3.58579 1.58579C3.96086 1.21071 4.46957 1 5 1C5.53043 1 6.03914 1.21071 6.41421 1.58579C6.78929 1.96086 7 2.46957 7 3C7 3.53043 6.78929 4.03914 6.41421 4.41421C6.03914 4.78929 5.53043 5 5 5C4.46957 5 3.96086 4.78929 3.58579 4.41421C3.21071 4.03914 3 3.53043 3 3ZM9.779 4.584L9.821 4.616C10.2453 4.93051 10.7768 5.06442 11.2994 4.98851C11.8221 4.9126 12.2935 4.63304 12.6108 4.21083C12.9281 3.78863 13.0655 3.25805 12.9931 2.7349C12.9206 2.21175 12.6442 1.73849 12.2241 1.41841C11.804 1.09833 11.2743 0.957417 10.7507 1.02642C10.2271 1.09542 9.752 1.36873 9.42915 1.78671C9.10631 2.2047 8.9619 2.73341 9.02744 3.25748C9.09298 3.78154 9.36316 4.2584 9.779 4.584ZM6.268 6C6.3936 5.76216 6.56589 5.5521 6.77455 5.38239C6.98321 5.21268 7.22395 5.08679 7.48239 5.01227C7.74082 4.93775 8.01163 4.91612 8.27862 4.94867C8.54561 4.98123 8.80328 5.0673 9.03624 5.20175C9.26919 5.33619 9.47263 5.51624 9.63439 5.73112C9.79615 5.94601 9.91291 6.19131 9.97768 6.45236C10.0424 6.71341 10.0539 6.98484 10.0113 7.25042C9.96878 7.51599 9.87309 7.77026 9.73 7.998C9.45472 8.43613 9.02035 8.75051 8.51814 8.87511C8.01593 8.99971 7.48498 8.92483 7.03683 8.66619C6.58867 8.40755 6.2582 7.98529 6.11483 7.48811C5.97147 6.99094 6.02637 6.45755 6.268 6ZM2.5 6H5.17C4.99227 6.50756 4.95363 7.05343 5.05808 7.58097C5.16253 8.1085 5.40627 8.59846 5.764 9H5.5C4.98444 8.99993 4.48145 9.15919 4.05988 9.45598C3.63832 9.75278 3.31878 10.1726 3.145 10.658C2.80933 10.5232 2.49505 10.3402 2.212 10.115C1.46 9.51 1 8.616 1 7.5C1 7.10218 1.15804 6.72064 1.43934 6.43934C1.72064 6.15804 2.10218 6 2.5 6ZM10.5 9C11.0154 8.99999 11.5183 9.15929 11.9397 9.45609C12.361 9.75289 12.6804 10.1727 12.854 10.658C13.194 10.519 13.509 10.338 13.788 10.115C14.54 9.51 15 8.616 15 7.5C15 7.10218 14.842 6.72064 14.5607 6.43934C14.2794 6.15804 13.8978 6 13.5 6H10.83C10.94 6.313 11 6.65 11 7C11.0009 7.73811 10.7288 8.45049 10.236 9H10.5ZM11.887 10.928C11.96 11.104 12 11.298 12 11.5C12 12.616 11.541 13.51 10.788 14.115C10.047 14.71 9.053 15 8 15C6.947 15 5.953 14.71 5.212 14.115C4.46 13.51 4 12.616 4 11.5C3.99947 11.3029 4.03791 11.1076 4.11311 10.9254C4.1883 10.7431 4.29877 10.5776 4.43816 10.4382C4.57756 10.2988 4.74312 10.1883 4.92535 10.1131C5.10758 10.0379 5.30287 9.99947 5.5 10H10.5C10.7971 9.99993 11.0875 10.0881 11.3345 10.2533C11.5814 10.4185 11.7737 10.6533 11.887 10.928Z" fill="black"/>
</svg>
