<svg width="16" height="16" viewBox="0 0 16 16" fill="none" xmlns="http://www.w3.org/2000/svg">
<path d="M4.00002 14.0002C3.63335 14.0002 3.31935 13.8695 3.05802 13.6082C2.79669 13.3468 2.66624 13.0331 2.66669 12.6668V6.66683C2.66669 6.45572 2.71402 6.25572 2.80869 6.06683C2.90335 5.87794 3.0338 5.72238 3.20002 5.60016L7.20002 2.60016C7.32224 2.51127 7.45002 2.44461 7.58335 2.40016C7.71669 2.35572 7.85558 2.3335 8.00002 2.3335C8.14447 2.3335 8.28336 2.35572 8.41669 2.40016C8.55002 2.44461 8.6778 2.51127 8.80002 2.60016L12.8 5.60016C12.9667 5.72238 13.0974 5.87794 13.192 6.06683C13.2867 6.25572 13.3338 6.45572 13.3334 6.66683V12.6668C13.3334 13.0335 13.2027 13.3475 12.9414 13.6088C12.68 13.8702 12.3662 14.0006 12 14.0002H9.33335V9.3335H6.66669V14.0002H4.00002Z" fill="black"/>
</svg>
