<svg width="16" height="16" viewBox="0 0 16 16" fill="none" xmlns="http://www.w3.org/2000/svg">
<path d="M5.5 11.75V8.5H10.0312C10.1639 8.5 10.291 8.44732 10.3848 8.35355C10.4786 8.25979 10.5312 8.13261 10.5312 8C10.5312 7.86739 10.4786 7.74021 10.3848 7.64645C10.291 7.55268 10.1639 7.5 10.0312 7.5H5.5V4.25C5.5005 3.78602 5.68503 3.34119 6.01311 3.01311C6.34119 2.68503 6.78602 2.5005 7.25 2.5H13.25C13.714 2.5005 14.1588 2.68503 14.4869 3.01311C14.815 3.34119 14.9995 3.78602 15 4.25V11.75C14.9995 12.214 14.815 12.6588 14.4869 12.9869C14.1588 13.315 13.714 13.4995 13.25 13.5H7.25C6.78602 13.4995 6.34119 13.315 6.01311 12.9869C5.68503 12.6588 5.5005 12.214 5.5 11.75ZM2.70719 8.5L4.35344 10.1466C4.44325 10.2411 4.49258 10.367 4.49091 10.4973C4.48924 10.6277 4.4367 10.7523 4.3445 10.8445C4.2523 10.9367 4.12773 10.9892 3.99735 10.9909C3.86697 10.9926 3.74109 10.9432 3.64656 10.8534L1.14656 8.35344C1.05287 8.25968 1.00023 8.13255 1.00023 8C1.00023 7.86745 1.05287 7.74032 1.14656 7.64656L3.64656 5.14656C3.74109 5.05675 3.86697 5.00742 3.99735 5.00909C4.12773 5.01076 4.2523 5.0633 4.3445 5.1555C4.4367 5.2477 4.48924 5.37227 4.49091 5.50265C4.49258 5.63303 4.44325 5.75891 4.35344 5.85344L2.70719 7.5H5.5V8.5H2.70719Z" fill="#2B2B2B"/>
</svg>
