<svg width="16" height="16" viewBox="0 0 16 16" fill="none" xmlns="http://www.w3.org/2000/svg">
<path d="M3.99998 9.3335H5.33331L7.33331 11.3335H5.99998L3.99998 9.3335ZM2.66665 2.66683H3.33331V2.00016C3.33331 1.82335 3.40355 1.65378 3.52858 1.52876C3.6536 1.40373 3.82317 1.3335 3.99998 1.3335H6.66665C6.84346 1.3335 7.01303 1.40373 7.13805 1.52876C7.26307 1.65378 7.33331 1.82335 7.33331 2.00016V2.66683H8.66665V2.00016C8.66665 1.82335 8.73688 1.65378 8.86191 1.52876C8.98693 1.40373 9.1565 1.3335 9.33331 1.3335H12C12.1768 1.3335 12.3464 1.40373 12.4714 1.52876C12.5964 1.65378 12.6666 1.82335 12.6666 2.00016V2.66683H13.3333C13.6869 2.66683 14.0261 2.80731 14.2761 3.05735C14.5262 3.3074 14.6666 3.64654 14.6666 4.00016V12.6668C14.6666 13.0205 14.5262 13.3596 14.2761 13.6096C14.0261 13.8597 13.6869 14.0002 13.3333 14.0002V14.6668H11.3333V14.0002H4.66665V14.6668H2.66665V14.0002C2.31302 14.0002 1.97389 13.8597 1.72384 13.6096C1.47379 13.3596 1.33331 13.0205 1.33331 12.6668V4.00016C1.33331 3.64654 1.47379 3.3074 1.72384 3.05735C1.97389 2.80731 2.31302 2.66683 2.66665 2.66683ZM12 4.66683C12.1768 4.66683 12.3464 4.73707 12.4714 4.86209C12.5964 4.98712 12.6666 5.15668 12.6666 5.3335C12.6666 5.51031 12.5964 5.67988 12.4714 5.8049C12.3464 5.92992 12.1768 6.00016 12 6.00016C11.8232 6.00016 11.6536 5.92992 11.5286 5.8049C11.4036 5.67988 11.3333 5.51031 11.3333 5.3335C11.3333 5.15668 11.4036 4.98712 11.5286 4.86209C11.6536 4.73707 11.8232 4.66683 12 4.66683ZM9.33331 4.66683C9.51012 4.66683 9.67969 4.73707 9.80472 4.86209C9.92974 4.98712 9.99998 5.15668 9.99998 5.3335C9.99998 5.51031 9.92974 5.67988 9.80472 5.8049C9.67969 5.92992 9.51012 6.00016 9.33331 6.00016C9.1565 6.00016 8.98693 5.92992 8.86191 5.8049C8.73688 5.67988 8.66665 5.51031 8.66665 5.3335C8.66665 5.15668 8.73688 4.98712 8.86191 4.86209C8.98693 4.73707 9.1565 4.66683 9.33331 4.66683ZM13.3333 4.00016H2.66665V6.66683H13.3333V4.00016ZM2.66665 12.6668H13.3333V8.00016H2.66665V12.6668ZM3.99998 4.66683C4.17679 4.66683 4.34636 4.73707 4.47138 4.86209C4.59641 4.98712 4.66665 5.15668 4.66665 5.3335C4.66665 5.51031 4.59641 5.67988 4.47138 5.8049C4.34636 5.92992 4.17679 6.00016 3.99998 6.00016C3.82317 6.00016 3.6536 5.92992 3.52858 5.8049C3.40355 5.67988 3.33331 5.51031 3.33331 5.3335C3.33331 5.15668 3.40355 4.98712 3.52858 4.86209C3.6536 4.73707 3.82317 4.66683 3.99998 4.66683ZM8.66665 9.3335H9.99998L12 11.3335H10.6666L8.66665 9.3335Z" fill="black"/>
</svg>
