<svg width="16" height="15" viewBox="0 0 16 15" fill="none" xmlns="http://www.w3.org/2000/svg">
<g clip-path="url(#clip0_32_168)">
<path d="M8.27947 6.22231L12.4445 7.70981V13.7779C12.4445 13.8957 12.3976 14.0088 12.3143 14.0921C12.2309 14.1755 12.1179 14.2223 12 14.2223H10.2222C10.1044 14.2223 9.99133 14.1755 9.90798 14.0921C9.82463 14.0088 9.77781 13.8957 9.77781 13.7779V10.6668H5.33336V13.7779C5.33336 13.8957 5.28654 14.0088 5.20319 14.0921C5.11984 14.1755 5.00679 14.2223 4.88892 14.2223H3.11114C2.99326 14.2223 2.88022 14.1755 2.79687 14.0921C2.71352 14.0088 2.66669 13.8957 2.66669 13.7779V7.83592C1.63447 7.46787 0.888916 6.49064 0.888916 5.33342C0.888916 5.09767 0.982567 4.87158 1.14927 4.70488C1.31596 4.53818 1.54206 4.44453 1.7778 4.44453C2.01355 4.44453 2.23965 4.53818 2.40634 4.70488C2.57304 4.87158 2.66669 5.09767 2.66669 5.33342C2.66713 5.56903 2.76093 5.79487 2.92753 5.96147C3.09413 6.12808 3.31997 6.22187 3.55558 6.22231H8.27947ZM15.1111 3.1112V4.00009C15.1111 4.47158 14.9238 4.92377 14.5904 5.25717C14.257 5.59057 13.8049 5.77787 13.3334 5.77787H12.4445V6.7662L8.88892 5.49648V1.33342C8.88892 0.937589 9.36725 0.739255 9.64753 1.01926L10.4053 1.77787H11.895C12.1981 1.77787 12.5547 1.99787 12.69 2.26926L12.8889 2.66676H14.6667C14.7846 2.66676 14.8976 2.71358 14.981 2.79693C15.0643 2.88028 15.1111 2.99333 15.1111 3.1112ZM12 3.1112C12 3.0233 11.974 2.93737 11.9251 2.86428C11.8763 2.79119 11.8069 2.73423 11.7257 2.70059C11.6445 2.66695 11.5551 2.65815 11.4689 2.6753C11.3827 2.69244 11.3035 2.73477 11.2413 2.79693C11.1792 2.85909 11.1368 2.93828 11.1197 3.02449C11.1025 3.11071 11.1113 3.20007 11.145 3.28128C11.1786 3.36249 11.2356 3.43191 11.3087 3.48074C11.3818 3.52958 11.4677 3.55564 11.5556 3.55564C11.6735 3.55564 11.7865 3.50882 11.8699 3.42547C11.9532 3.34212 12 3.22907 12 3.1112Z" fill="black"/>
</g>
<defs>
<clipPath id="clip0_32_168">
<rect width="16" height="14.2222" fill="white"/>
</clipPath>
</defs>
</svg>
