<svg width="16" height="16" viewBox="0 0 16 16" fill="none" xmlns="http://www.w3.org/2000/svg">
<path d="M4.66665 1.3335H11.3333C11.6869 1.3335 12.0261 1.47397 12.2761 1.72402C12.5262 1.97407 12.6666 2.31321 12.6666 2.66683V6.00016H3.33331V2.66683C3.33331 2.31321 3.47379 1.97407 3.72384 1.72402C3.97389 1.47397 4.31302 1.3335 4.66665 1.3335ZM12.6666 12.6668C12.6666 13.0205 12.5262 13.3596 12.2761 13.6096C12.0261 13.8597 11.6869 14.0002 11.3333 14.0002V14.6668H9.99998V14.0002H5.99998V14.6668H4.66665V14.0002C4.31302 14.0002 3.97389 13.8597 3.72384 13.6096C3.47379 13.3596 3.33331 13.0205 3.33331 12.6668V6.66683H12.6666V12.6668ZM5.33331 3.3335V4.66683H6.66665V3.3335H5.33331ZM5.33331 8.00016V10.0002H6.66665V8.00016H5.33331Z" fill="black"/>
</svg>
