<svg width="16" height="16" viewBox="0 0 16 16" fill="none" xmlns="http://www.w3.org/2000/svg">
<path d="M7.183 2.11301C7.24025 2.06622 7.30717 2.03272 7.37893 2.01491C7.4507 1.9971 7.52551 1.99542 7.598 2.01001L12.598 3.01001C12.7113 3.03265 12.8133 3.09384 12.8866 3.18317C12.9598 3.2725 12.9999 3.38446 13 3.50001V12.497C12.9999 12.6126 12.9598 12.7245 12.8866 12.8138C12.8133 12.9032 12.7113 12.9644 12.598 12.987L7.598 13.987C7.52549 14.0015 7.45067 13.9997 7.37892 13.9818C7.30718 13.9639 7.2403 13.9303 7.1831 13.8835C7.1259 13.8366 7.07981 13.7776 7.04815 13.7108C7.01649 13.644 7.00004 13.571 7 13.497V2.50001M10 7.99801C10 7.8654 9.94732 7.73822 9.85355 7.64445C9.75979 7.55068 9.63261 7.49801 9.5 7.49801C9.36739 7.49801 9.24021 7.55068 9.14645 7.64445C9.05268 7.73822 9 7.8654 9 7.99801C9 8.13061 9.05268 8.25779 9.14645 8.35156C9.24021 8.44533 9.36739 8.49801 9.5 8.49801C9.63261 8.49801 9.75979 8.44533 9.85355 8.35156C9.94732 8.25779 10 8.13061 10 7.99801ZM6 3.00001H3.5C3.36739 3.00001 3.24021 3.05268 3.14645 3.14645C3.05268 3.24022 3 3.3674 3 3.50001V12.497C3 12.6296 3.05268 12.7568 3.14645 12.8506C3.24021 12.9443 3.36739 12.997 3.5 12.997H6V3.00001ZM7.183 2.11301C7.12575 2.15994 7.07964 2.21901 7.04799 2.28593C7.01634 2.35286 6.99995 2.42598 7 2.50001L7.183 2.11301Z" fill="white"/>
</svg>
