<svg width="20" height="20" viewBox="0 0 20 20" fill="none" xmlns="http://www.w3.org/2000/svg">
<path d="M7.50004 4.16666C7.27903 4.16666 7.06707 4.25446 6.91079 4.41074C6.7545 4.56702 6.66671 4.77898 6.66671 5C6.66671 5.22101 6.7545 5.43297 6.91079 5.58925C7.06707 5.74553 7.27903 5.83333 7.50004 5.83333C7.72105 5.83333 7.93302 5.74553 8.0893 5.58925C8.24558 5.43297 8.33337 5.22101 8.33337 5C8.33337 4.77898 8.24558 4.56702 8.0893 4.41074C7.93302 4.25446 7.72105 4.16666 7.50004 4.16666ZM5.14171 4.16666C5.31388 3.67872 5.63316 3.25619 6.05554 2.95732C6.47792 2.65845 6.98261 2.49796 7.50004 2.49796C8.01747 2.49796 8.52216 2.65845 8.94454 2.95732C9.36692 3.25619 9.68621 3.67872 9.85837 4.16666H15.8334C16.0544 4.16666 16.2663 4.25446 16.4226 4.41074C16.5789 4.56702 16.6667 4.77898 16.6667 5C16.6667 5.22101 16.5789 5.43297 16.4226 5.58925C16.2663 5.74553 16.0544 5.83333 15.8334 5.83333H9.85837C9.68621 6.32127 9.36692 6.7438 8.94454 7.04267C8.52216 7.34154 8.01747 7.50204 7.50004 7.50204C6.98261 7.50204 6.47792 7.34154 6.05554 7.04267C5.63316 6.7438 5.31388 6.32127 5.14171 5.83333H4.16671C3.94569 5.83333 3.73373 5.74553 3.57745 5.58925C3.42117 5.43297 3.33337 5.22101 3.33337 5C3.33337 4.77898 3.42117 4.56702 3.57745 4.41074C3.73373 4.25446 3.94569 4.16666 4.16671 4.16666H5.14171ZM12.5 9.16666C12.279 9.16666 12.0671 9.25446 11.9108 9.41074C11.7545 9.56702 11.6667 9.77898 11.6667 10C11.6667 10.221 11.7545 10.433 11.9108 10.5893C12.0671 10.7455 12.279 10.8333 12.5 10.8333C12.7211 10.8333 12.933 10.7455 13.0893 10.5893C13.2456 10.433 13.3334 10.221 13.3334 10C13.3334 9.77898 13.2456 9.56702 13.0893 9.41074C12.933 9.25446 12.7211 9.16666 12.5 9.16666ZM10.1417 9.16666C10.3139 8.67872 10.6332 8.25619 11.0555 7.95732C11.4779 7.65845 11.9826 7.49795 12.5 7.49795C13.0175 7.49795 13.5222 7.65845 13.9445 7.95732C14.3669 8.25619 14.6862 8.67872 14.8584 9.16666H15.8334C16.0544 9.16666 16.2663 9.25446 16.4226 9.41074C16.5789 9.56702 16.6667 9.77898 16.6667 10C16.6667 10.221 16.5789 10.433 16.4226 10.5893C16.2663 10.7455 16.0544 10.8333 15.8334 10.8333H14.8584C14.6862 11.3213 14.3669 11.7438 13.9445 12.0427C13.5222 12.3415 13.0175 12.502 12.5 12.502C11.9826 12.502 11.4779 12.3415 11.0555 12.0427C10.6332 11.7438 10.3139 11.3213 10.1417 10.8333H4.16671C3.94569 10.8333 3.73373 10.7455 3.57745 10.5893C3.42117 10.433 3.33337 10.221 3.33337 10C3.33337 9.77898 3.42117 9.56702 3.57745 9.41074C3.73373 9.25446 3.94569 9.16666 4.16671 9.16666H10.1417ZM7.50004 14.1667C7.27903 14.1667 7.06707 14.2545 6.91079 14.4107C6.7545 14.567 6.66671 14.779 6.66671 15C6.66671 15.221 6.7545 15.433 6.91079 15.5893C7.06707 15.7455 7.27903 15.8333 7.50004 15.8333C7.72105 15.8333 7.93302 15.7455 8.0893 15.5893C8.24558 15.433 8.33337 15.221 8.33337 15C8.33337 14.779 8.24558 14.567 8.0893 14.4107C7.93302 14.2545 7.72105 14.1667 7.50004 14.1667ZM5.14171 14.1667C5.31388 13.6787 5.63316 13.2562 6.05554 12.9573C6.47792 12.6585 6.98261 12.498 7.50004 12.498C8.01747 12.498 8.52216 12.6585 8.94454 12.9573C9.36692 13.2562 9.68621 13.6787 9.85837 14.1667H15.8334C16.0544 14.1667 16.2663 14.2545 16.4226 14.4107C16.5789 14.567 16.6667 14.779 16.6667 15C16.6667 15.221 16.5789 15.433 16.4226 15.5893C16.2663 15.7455 16.0544 15.8333 15.8334 15.8333H9.85837C9.68621 16.3213 9.36692 16.7438 8.94454 17.0427C8.52216 17.3415 8.01747 17.502 7.50004 17.502C6.98261 17.502 6.47792 17.3415 6.05554 17.0427C5.63316 16.7438 5.31388 16.3213 5.14171 15.8333H4.16671C3.94569 15.8333 3.73373 15.7455 3.57745 15.5893C3.42117 15.433 3.33337 15.221 3.33337 15C3.33337 14.779 3.42117 14.567 3.57745 14.4107C3.73373 14.2545 3.94569 14.1667 4.16671 14.1667H5.14171Z" fill="#125099"/>
</svg>
