<svg width="33" height="35" viewBox="0 0 33 35" fill="none" xmlns="http://www.w3.org/2000/svg">
<g clip-path="url(#clip0_38_1427)" filter="url(#filter0_d_38_1427)">
<path d="M28.7914 6.0762L21.2914 25.4512C21.2172 25.6431 21.0968 25.8137 20.9408 25.9479C20.7849 26.0821 20.5982 26.1758 20.3974 26.2205C20.1966 26.2653 19.9879 26.2598 19.7897 26.2045C19.5915 26.1493 19.41 26.0459 19.2614 25.9037L15.0339 21.86L12.4414 24.4512C12.3539 24.5384 12.2425 24.5977 12.1214 24.6217C12.0002 24.6457 11.8746 24.6332 11.7606 24.5858C11.6465 24.5385 11.549 24.4584 11.4804 24.3557C11.4118 24.253 11.3751 24.1322 11.3751 24.0087V18.36L4.88637 12.1537C4.72537 11.9997 4.60847 11.8054 4.54777 11.591C4.48707 11.3767 4.48477 11.1499 4.54112 10.9344C4.59746 10.7188 4.7104 10.5222 4.86825 10.365C5.02609 10.2077 5.22309 10.0955 5.43887 10.04L27.3139 4.41495C27.5363 4.35798 27.7701 4.36336 27.9896 4.43049C28.2091 4.49763 28.4059 4.62392 28.5584 4.79553C28.7109 4.96714 28.8132 5.17743 28.8541 5.40334C28.895 5.62925 28.8728 5.86205 28.7901 6.0762H28.7914ZM25.7501 7.5012L12.0401 16.44L14.2089 18.515L25.7501 7.5012Z" fill="white"/>
</g>
<defs>
<filter id="filter0_d_38_1427" x="-2" y="0" width="38" height="38" filterUnits="userSpaceOnUse" color-interpolation-filters="sRGB">
<feFlood flood-opacity="0" result="BackgroundImageFix"/>
<feColorMatrix in="SourceAlpha" type="matrix" values="0 0 0 0 0 0 0 0 0 0 0 0 0 0 0 0 0 0 127 0" result="hardAlpha"/>
<feOffset dy="4"/>
<feGaussianBlur stdDeviation="2"/>
<feComposite in2="hardAlpha" operator="out"/>
<feColorMatrix type="matrix" values="0 0 0 0 0 0 0 0 0 0 0 0 0 0 0 0 0 0 0.25 0"/>
<feBlend mode="normal" in2="BackgroundImageFix" result="effect1_dropShadow_38_1427"/>
<feBlend mode="normal" in="SourceGraphic" in2="effect1_dropShadow_38_1427" result="shape"/>
</filter>
<clipPath id="clip0_38_1427">
<rect width="30" height="30" fill="white" transform="translate(2)"/>
</clipPath>
</defs>
</svg>
