<svg width="16" height="16" viewBox="0 0 16 16" fill="none" xmlns="http://www.w3.org/2000/svg">
<path d="M12.5667 10.6668L12 10.1001V8.66676H13V10.6668H12.5667ZM11.3333 9.43343L10.5667 8.66676H11.3333V9.43343ZM13.6667 10.6668V8.66676H14.6667V10.6668H13.6667ZM12.7333 14.6001L8.80001 10.6668H2.33334C2.05556 10.6668 1.81934 10.5694 1.62467 10.3748C1.43001 10.1801 1.3329 9.94409 1.33334 9.66676C1.33334 9.38898 1.43067 9.15276 1.62534 8.9581C1.82001 8.76343 2.05601 8.66632 2.33334 8.66676H6.80001L1.40001 3.26676C1.27779 3.14454 1.21667 2.98898 1.21667 2.80009C1.21667 2.61121 1.27779 2.45565 1.40001 2.33343C1.52223 2.21121 1.67779 2.15009 1.86667 2.15009C2.05556 2.15009 2.21112 2.21121 2.33334 2.33343L13.6667 13.6668C13.7889 13.789 13.85 13.9445 13.85 14.1334C13.85 14.3223 13.7889 14.4779 13.6667 14.6001C13.5445 14.7223 13.3889 14.7834 13.2 14.7834C13.0111 14.7834 12.8556 14.7223 12.7333 14.6001ZM12.5 8.00009C12.3556 8.00009 12.2362 7.95276 12.142 7.85809C12.0478 7.76343 12.0005 7.64409 12 7.50009V7.13343C12 6.70009 11.8722 6.36943 11.6167 6.14143C11.3611 5.91343 11.0556 5.79965 10.7 5.8001H9.66668C9.04445 5.8001 8.51667 5.58343 8.08334 5.15009C7.65001 4.71676 7.43334 4.18898 7.43334 3.56676C7.43334 3.04454 7.59179 2.58343 7.90868 2.18343C8.22556 1.78343 8.62267 1.52232 9.10001 1.40009C9.24445 1.35565 9.37512 1.38632 9.49201 1.49209C9.6089 1.59787 9.66712 1.73943 9.66668 1.91676C9.66668 2.01676 9.62779 2.11121 9.55001 2.2001C9.47223 2.28898 9.37223 2.35565 9.25001 2.40009C9.01667 2.48898 8.82223 2.6361 8.66668 2.84143C8.51112 3.04676 8.43334 3.28854 8.43334 3.56676C8.43334 3.92232 8.55556 4.21676 8.80001 4.4501C9.04445 4.68343 9.33334 4.8001 9.66668 4.8001H10.7C11.3222 4.8001 11.8611 5.0001 12.3167 5.4001C12.7722 5.8001 13 6.3001 13 6.90009V7.50009C13 7.64454 12.9527 7.76409 12.858 7.85876C12.7633 7.95343 12.644 8.00054 12.5 8.00009ZM14.1667 8.00009C14.0222 8.00009 13.9029 7.95276 13.8087 7.85809C13.7145 7.76343 13.6671 7.64409 13.6667 7.50009V6.5001C13.6667 5.83343 13.4556 5.2501 13.0333 4.7501C12.6111 4.2501 12.0778 3.94454 11.4333 3.83343C11.3111 3.81121 11.2082 3.75276 11.1247 3.6581C11.0411 3.56343 10.9996 3.44409 11 3.30009C11 3.16676 11.0333 3.0501 11.1 2.9501C11.1667 2.8501 11.2778 2.77232 11.4333 2.71676C11.6111 2.65009 11.764 2.5501 11.892 2.41676C12.02 2.28343 12.1116 2.12787 12.1667 1.95009C12.2111 1.82787 12.2751 1.73343 12.3587 1.66676C12.4422 1.6001 12.5338 1.56676 12.6333 1.56676C12.8111 1.56676 12.9529 1.62787 13.0587 1.7501C13.1645 1.87232 13.1949 2.01121 13.15 2.16676C13.0945 2.35565 13.0167 2.53343 12.9167 2.7001C12.8167 2.86676 12.7 3.02232 12.5667 3.16676C13.1889 3.45565 13.6945 3.9001 14.0833 4.5001C14.4722 5.1001 14.6667 5.76676 14.6667 6.5001V7.50009C14.6667 7.64454 14.6193 7.76387 14.5247 7.85809C14.43 7.95232 14.3107 7.99965 14.1667 8.00009Z" fill="black"/>
</svg>
