<svg width="16" height="13" viewBox="0 0 16 13" fill="none" xmlns="http://www.w3.org/2000/svg">
<path d="M4 5.6001V7.2001H12V5.6001C12 4.7176 12.7175 4.0001 13.6 4.0001H14.4C14.4 2.6751 13.325 1.6001 12 1.6001H4C2.675 1.6001 1.6 2.6751 1.6 4.0001H2.4C3.2825 4.0001 4 4.7176 4 5.6001ZM14.4 4.8001H13.6C13.1575 4.8001 12.8 5.1576 12.8 5.6001V8.0001H3.2V5.6001C3.2 5.1576 2.8425 4.8001 2.4 4.8001H1.6C0.7175 4.8001 0 5.5176 0 6.4001C0 6.9901 0.325 7.5001 0.8 7.7776V10.8001C0.8 11.0201 0.98 11.2001 1.2 11.2001H2.8C3.02 11.2001 3.2 11.0201 3.2 10.8001V10.4001H12.8V10.8001C12.8 11.0201 12.98 11.2001 13.2 11.2001H14.8C15.02 11.2001 15.2 11.0201 15.2 10.8001V7.7776C15.675 7.5001 16 6.9901 16 6.4001C16 5.5176 15.2825 4.8001 14.4 4.8001Z" fill="black"/>
</svg>
